<?xml version="1.0" encoding="utf-8"?>
<!-- Generator: Adobe Illustrator 16.0.0, SVG Export Plug-In . SVG Version: 6.00 Build 0)  -->
<!DOCTYPE svg PUBLIC "-//W3C//DTD SVG 1.1//EN" "http://www.w3.org/Graphics/SVG/1.1/DTD/svg11.dtd">
<svg version="1.1" id="Layer_1" xmlns="http://www.w3.org/2000/svg" xmlns:xlink="http://www.w3.org/1999/xlink" x="0px" y="0px"
	 width="128px" height="64px" viewBox="0 0 128 64" enable-background="new 0 0 128 64" xml:space="preserve">
<path fill="#FFFFFF" d="M26.901,41.589c0.537,0.557,1.408,0.557,1.945,0l8.253-8.578c0.537-0.559,0.537-1.463,0-2.021l-8.253-8.576
	c-0.269-0.279-0.621-0.419-0.973-0.419s-0.704,0.14-0.973,0.419c-0.537,0.559-0.537,1.463,0,2.021L34.181,32l-7.28,7.567
	C26.364,40.126,26.364,41.028,26.901,41.589z"/>
<path fill="#FFFFFF" d="M101.099,41.589c-0.537,0.557-1.408,0.557-1.945,0L90.9,33.011c-0.537-0.559-0.537-1.463,0-2.022
	l8.253-8.576c0.269-0.279,0.621-0.419,0.973-0.419s0.704,0.14,0.973,0.419c0.537,0.559,0.537,1.463,0,2.021L93.818,32l7.28,7.568
	C101.636,40.126,101.636,41.028,101.099,41.589z"/>
</svg>
