<?xml version="1.0" encoding="utf-8"?>
<!-- Generator: Adobe Illustrator 16.0.0, SVG Export Plug-In . SVG Version: 6.00 Build 0)  -->
<!DOCTYPE svg PUBLIC "-//W3C//DTD SVG 1.1//EN" "http://www.w3.org/Graphics/SVG/1.1/DTD/svg11.dtd">
<svg version="1.1" id="Layer_1" xmlns="http://www.w3.org/2000/svg" xmlns:xlink="http://www.w3.org/1999/xlink" x="0px" y="0px"
	 width="60px" height="30px" viewBox="0 0 60 30" enable-background="new 0 0 60 30" xml:space="preserve">
<g>
	<path fill="#00CCCC" d="M20.1,24.59c-0.54,0.56-1.41,0.56-1.95,0L9.9,16.01c-0.54-0.56-0.54-1.46,0-2.02l8.25-8.58
		c0.27-0.28,0.62-0.42,0.97-0.42s0.7,0.14,0.97,0.42c0.54,0.56,0.54,1.46,0,2.02L12.82,15l7.28,7.57
		C20.64,23.12,20.64,24.03,20.1,24.59z"/>
</g>
<g>
	<path fill="#00CCCC" d="M39.9,24.59c0.54,0.56,1.41,0.56,1.95,0l8.25-8.58c0.54-0.56,0.54-1.46,0-2.02l-8.25-8.58
		c-0.27-0.28-0.62-0.42-0.97-0.42s-0.7,0.14-0.97,0.42c-0.54,0.56-0.54,1.46,0,2.02L47.18,15l-7.28,7.57
		C39.36,23.12,39.36,24.03,39.9,24.59z"/>
</g>
</svg>
