<?xml version="1.0" encoding="utf-8"?><!DOCTYPE svg PUBLIC "-//W3C//DTD SVG 1.1//EN" "http://www.w3.org/Graphics/SVG/1.1/DTD/svg11.dtd"><svg width="263" height="224" viewBox="0 0 263 224" xmlns="http://www.w3.org/2000/svg" xmlns:xlink="http://www.w3.org/1999/xlink"><svg viewBox="0 0 30 24" width="30" height="24" id="calendar-turq" x="156" y="192"><path fill="#0CC" d="M23.9 3.1c-.3-.3-.6-.4-1-.4h-1.4V1.6c0-.5-.2-.9-.5-1.3-.4-.3-.8-.5-1.3-.5H19c-.5 0-.9.2-1.3.5s-.5.8-.5 1.3v1.1h-4.3V1.6c0-.5-.2-.9-.5-1.3s-.8-.5-1.3-.5h-.7c-.5.1-1 .2-1.3.6-.4.3-.5.8-.5 1.2v1.1H7.1c-.4 0-.7.1-1 .4-.3.3-.4.6-.4 1v14.3c0 .4.1.7.4 1 .3.3.6.4 1 .4h15.7c.4 0 .7-.1 1-.4.3-.3.4-.6.4-1V4.1c.1-.3-.1-.7-.3-1zM10.4 18.4H7.1v-3.2h3.2v3.2zm0-3.9H7.1v-3.6h3.2v3.6zm0-4.3H7.1V7h3.2v3.2zm-.3-5.1C10 5 10 5 10 4.9V1.6c0-.1 0-.2.1-.3.1-.1.2-.1.3-.1h.7c.1 0 .2 0 .3.1.1.1.1.2.1.3v3.2c0 .1 0 .2-.1.3-.1.1-.2.1-.3.1h-.7c-.1 0-.2 0-.3-.1zm4.5 13.3H11v-3.2h3.6v3.2zm0-3.9H11v-3.6h3.6v3.6zm0-4.3H11V7h3.6v3.2zm4.3 8.2h-3.6v-3.2h3.6v3.2zm0-3.9h-3.6v-3.6h3.6v3.6zm0-4.3h-3.6V7h3.6v3.2zm-.2-5.1c-.1-.1-.1-.1-.1-.2V1.6c0-.1 0-.2.1-.3.1-.1.2-.1.3-.1h.7c.1 0 .2 0 .3.1v3.5c0 .2 0 .2-.1.3-.1.1-.2.1-.3.1h-.7c-.1 0-.2 0-.2-.1zm4.2 13.3h-3.2v-3.2h3.2v3.2zm0-3.9h-3.2v-3.6h3.2v3.6zm0-4.3h-3.2V7h3.2v3.2z"/></svg><svg viewBox="0 0 30 24" width="30" height="24" id="calendar-wht" x="186" y="192"><path fill="#FFF" d="M23.9 3.1c-.3-.3-.6-.4-1-.4h-1.4V1.6c0-.5-.2-.9-.5-1.3-.4-.3-.8-.5-1.3-.5H19c-.5 0-.9.2-1.3.5s-.5.8-.5 1.3v1.1h-4.3V1.6c0-.5-.2-.9-.5-1.3s-.8-.5-1.3-.5h-.7c-.5.1-1 .2-1.3.6-.4.3-.5.8-.5 1.2v1.1H7.1c-.4 0-.7.1-1 .4-.3.3-.4.6-.4 1v14.3c0 .4.1.7.4 1 .3.3.6.4 1 .4h15.7c.4 0 .7-.1 1-.4.3-.3.4-.6.4-1V4.1c.1-.3-.1-.7-.3-1zM10.4 18.4H7.1v-3.2h3.2v3.2zm0-3.9H7.1v-3.6h3.2v3.6zm0-4.3H7.1V7h3.2v3.2zm-.3-5.1C10 5 10 5 10 4.9V1.6c0-.1 0-.2.1-.3.1-.1.2-.1.3-.1h.7c.1 0 .2 0 .3.1.1.1.1.2.1.3v3.2c0 .1 0 .2-.1.3-.1.1-.2.1-.3.1h-.7c-.1 0-.2 0-.3-.1zm4.5 13.3H11v-3.2h3.6v3.2zm0-3.9H11v-3.6h3.6v3.6zm0-4.3H11V7h3.6v3.2zm4.3 8.2h-3.6v-3.2h3.6v3.2zm0-3.9h-3.6v-3.6h3.6v3.6zm0-4.3h-3.6V7h3.6v3.2zm-.2-5.1c-.1-.1-.1-.1-.1-.2V1.6c0-.1 0-.2.1-.3.1-.1.2-.1.3-.1h.7c.1 0 .2 0 .3.1v3.5c0 .2 0 .2-.1.3-.1.1-.2.1-.3.1h-.7c-.1 0-.2 0-.2-.1zm4.2 13.3h-3.2v-3.2h3.2v3.2zm0-3.9h-3.2v-3.6h3.2v3.6zm0-4.3h-3.2V7h3.2v3.2z"/></svg><svg width="17" height="17" viewBox="0 0 17 17" id="close" x="233" y="156"><g fill="#FFF" fill-rule="evenodd"><path d="M2.843.722l13.435 13.435-2.121 2.121L.722 2.843z"/><path d="M.722 14.157L14.157.722l2.121 2.121L2.843 16.278z"/></g></svg><svg width="8" height="19" viewBox="0 0 8 19" id="dropdown-turq" x="241" y="137"><path d="M4 19l-4-4.5h8L4 19zM4 0l4 4.5H0L4 0z" fill="#0CC" fill-rule="evenodd"/></svg><svg width="8" height="19" viewBox="0 0 8 19" id="dropdown-wht" x="233" y="137"><title>icons/dropdown wht</title><path d="M4 19l-4-4.5h8L4 19zM4 0l4 4.5H0L4 0z" fill="#FFF" fill-rule="evenodd"/></svg><svg data-name="Layer 2" viewBox="0 0 32 32" width="32" height="32" id="fb-blue" x="96" y="160"><title>fb-blue</title><circle fill="#0059a7" cx="16" cy="16" r="16"/><path fill="#fff" d="M12.4 13.48h1.54V12a4 4 0 0 1 .5-2.31 2.75 2.75 0 0 1 2.4-1.12 9.71 9.71 0 0 1 2.77.28l-.39 2.28a5.23 5.23 0 0 0-1.22-.2c-.6 0-1.14.21-1.14.81v1.74h2.46l-.17 2.23h-2.32v7.73h-2.89v-7.73H12.4z"/></svg><svg data-name="Layer 2" viewBox="0 0 32 32" width="32" height="32" id="fb-turq" x="128" y="160"><title>fb-turq</title><circle fill="#0cc" cx="16" cy="16" r="16"/><path fill="#fff" d="M12.4 13.48h1.54V12a4 4 0 0 1 .5-2.31 2.75 2.75 0 0 1 2.4-1.12 9.71 9.71 0 0 1 2.77.28l-.39 2.28a5.23 5.23 0 0 0-1.22-.2c-.6 0-1.14.21-1.14.81v1.74h2.46l-.17 2.23h-2.32v7.73h-2.89v-7.73H12.4z"/></svg><svg data-name="Layer 2" viewBox="0 0 34 33" width="34" height="33" id="fullscreen-blue" x="93" y="120"><title>fullscreen-blue</title><path fill="#0059a7" d="M0 0h34v33H0z"/><path fill="#fff" d="M10 15.27L11.31 13l1.8 1.8a1.31 1.31 0 0 0 1.86 0l.34-.34a1.31 1.31 0 0 0 0-1.86l-1.84-1.84 2.48-1.38H10zM18.06 9.37l2.28 1.27-1.8 1.8a1.31 1.31 0 0 0 0 1.86l.34.34a1.31 1.31 0 0 0 1.86 0l1.84-1.84L24 15.27v-5.9zM20.89 18.21a1.31 1.31 0 0 0-1.86 0l-.34.34a1.31 1.31 0 0 0 0 1.86l1.84 1.84-2.48 1.38H24v-5.9L22.69 20zM15.46 20.56a1.31 1.31 0 0 0 0-1.86l-.34-.34a1.31 1.31 0 0 0-1.86 0l-1.84 1.84L10 17.73v5.9h5.9l-2.28-1.27z"/></svg><svg data-name="Layer 2" viewBox="0 0 34 33" width="34" height="33" id="fullscreen-turq" x="127" y="120"><title>fullscreen-turq</title><path fill="#0cc" d="M0 0h34v33H0z"/><path fill="#fff" d="M10 15.27L11.31 13l1.8 1.8a1.31 1.31 0 0 0 1.86 0l.34-.34a1.31 1.31 0 0 0 0-1.86l-1.84-1.84 2.48-1.38H10zM18.06 9.37l2.28 1.27-1.8 1.8a1.31 1.31 0 0 0 0 1.86l.34.34a1.31 1.31 0 0 0 1.86 0l1.84-1.84L24 15.27v-5.9zM20.89 18.21a1.31 1.31 0 0 0-1.86 0l-.34.34a1.31 1.31 0 0 0 0 1.86l1.84 1.84-2.48 1.38H24v-5.9L22.69 20zM15.46 20.56a1.31 1.31 0 0 0 0-1.86l-.34-.34a1.31 1.31 0 0 0-1.86 0l-1.84 1.84L10 17.73v5.9h5.9l-2.28-1.27z"/></svg><svg data-name="Layer 2" viewBox="0 0 32 32" width="32" height="32" id="google-blue" y="192"><title>google-blue</title><circle fill="#0059a7" cx="16" cy="16" r="16"/><path fill="#fff" d="M16.55 17.33c-.49-.35-1.43-1.19-1.43-1.69s.17-.87 1-1.55a3.65 3.65 0 0 0 1.53-2.83 3.23 3.23 0 0 0-1.75-3.14h1.72l1.21-.88h-5.38c-2.43 0-4.72 1.84-4.72 4a3.92 3.92 0 0 0 4.14 3.94h.5a2.21 2.21 0 0 0-.28 1 2.11 2.11 0 0 0 .74 1.5h-.94c-3 0-5.33 1.92-5.33 3.91s2.54 3.19 5.56 3.19c3.44 0 5.33-1.95 5.33-3.91a3.78 3.78 0 0 0-1.9-3.54zm-2.9-2.72c-1.4 0-2.73-1.56-3-3.4S11.38 8 12.77 8s2.73 1.51 3 3.35-.77 3.3-2.12 3.26zm-.55 9.29c-2.1 0-3.59-1.32-3.59-2.9s1.87-2.85 3.95-2.82a4.57 4.57 0 0 1 1.35.22c1.13.79 1.94 1.23 2.17 2.13a2.4 2.4 0 0 1 .07.56c0 1.57-1.05 2.81-3.95 2.81zm9.23-9.13v-2.12h-1.7v2.11h-2.11v1.7h2.11v2.11h1.7v-2.1h2.11v-1.7z"/></svg><svg data-name="Layer 2" viewBox="0 0 32 32" width="32" height="32" id="google-turq" x="193" y="120"><title>google-turq</title><circle fill="#0cc" cx="16" cy="16" r="16"/><path fill="#fff" d="M16.55 17.33c-.49-.35-1.43-1.19-1.43-1.69s.17-.87 1-1.55a3.65 3.65 0 0 0 1.53-2.83 3.23 3.23 0 0 0-1.75-3.14h1.72l1.21-.88h-5.38c-2.43 0-4.72 1.84-4.72 4a3.92 3.92 0 0 0 4.14 3.94h.5a2.21 2.21 0 0 0-.28 1 2.11 2.11 0 0 0 .74 1.5h-.94c-3 0-5.33 1.92-5.33 3.91s2.54 3.19 5.56 3.19c3.44 0 5.33-1.95 5.33-3.91a3.78 3.78 0 0 0-1.9-3.54zm-2.9-2.72c-1.4 0-2.73-1.56-3-3.4S11.38 8 12.77 8s2.73 1.51 3 3.35-.77 3.3-2.12 3.26zm-.55 9.29c-2.1 0-3.59-1.32-3.59-2.9s1.87-2.85 3.95-2.82a4.57 4.57 0 0 1 1.35.22c1.13.79 1.94 1.23 2.17 2.13a2.4 2.4 0 0 1 .07.56c0 1.57-1.05 2.81-3.95 2.81zm9.23-9.13v-2.12h-1.7v2.11h-2.11v1.7h2.11v2.11h1.7v-2.1h2.11v-1.7z"/></svg><svg width="19" height="15" viewBox="0 0 19 15" id="hamburger" x="233" y="122"><g fill="#FFF"><path d="M0 0h19v3H0zM0 6h19v3H0zM0 12h19v3H0z"/></g></svg><svg width="32" height="32" viewBox="0 0 32 32" id="inst-blue" x="161" y="120"><title>icons/instagram</title><g fill="none" fill-rule="evenodd"><circle fill-opacity=".9" fill="#0059A7" cx="16" cy="16" r="16"/><path d="M22.422 20.854a1.53 1.53 0 0 1-1.531 1.526h-9.802a1.53 1.53 0 0 1-1.531-1.526v-6.523h2.385a4.314 4.314 0 0 0-.322 1.636 4.368 4.368 0 0 0 4.369 4.357c2.41 0 4.37-1.955 4.37-4.357 0-.578-.117-1.13-.323-1.636h2.385v6.523zm-8.712-6.523a2.81 2.81 0 0 1 2.28-1.17c.938 0 1.769.464 2.28 1.17.334.461.532 1.025.532 1.636a2.812 2.812 0 0 1-2.812 2.804 2.812 2.812 0 0 1-2.812-2.804c0-.611.199-1.175.532-1.636zm8.067-4.495h.353v2.7l-2.7.009-.008-2.701 2.355-.008zM20.89 8h-9.802A3.087 3.087 0 0 0 8 11.078v9.776a3.088 3.088 0 0 0 3.09 3.08h9.801a3.087 3.087 0 0 0 3.088-3.08v-9.776A3.086 3.086 0 0 0 20.891 8z" fill="#FFF"/></g></svg><svg width="32" height="32" viewBox="0 0 32 32" id="inst-turq" x="32" y="160"><title>icons/instagram</title><g fill="none" fill-rule="evenodd"><circle fill-opacity=".9" fill="#0cc" cx="16" cy="16" r="16"/><path d="M22.422 20.854a1.53 1.53 0 0 1-1.531 1.526h-9.802a1.53 1.53 0 0 1-1.531-1.526v-6.523h2.385a4.314 4.314 0 0 0-.322 1.636 4.368 4.368 0 0 0 4.369 4.357c2.41 0 4.37-1.955 4.37-4.357 0-.578-.117-1.13-.323-1.636h2.385v6.523zm-8.712-6.523a2.81 2.81 0 0 1 2.28-1.17c.938 0 1.769.464 2.28 1.17.334.461.532 1.025.532 1.636a2.812 2.812 0 0 1-2.812 2.804 2.812 2.812 0 0 1-2.812-2.804c0-.611.199-1.175.532-1.636zm8.067-4.495h.353v2.7l-2.7.009-.008-2.701 2.355-.008zM20.89 8h-9.802A3.087 3.087 0 0 0 8 11.078v9.776a3.088 3.088 0 0 0 3.09 3.08h9.801a3.087 3.087 0 0 0 3.088-3.08v-9.776A3.086 3.086 0 0 0 20.891 8z" fill="#FFF"/></g></svg><svg width="210" height="40" viewBox="0 0 210 40" id="logo-turq" y="40"><path fill="#0CC" d="M32.08 15.39C32.08 6.89 25.19 0 16.69 0S1.31 6.89 1.31 15.39c0 7.66 5.6 14 12.93 15.17l2.45 8.98 2.45-8.98c7.33-1.18 12.94-7.51 12.94-15.17m-4.23 0c0 6.16-4.99 11.16-11.15 11.16s-11.15-5-11.15-11.16S10.54 4.24 16.7 4.24c6.15-.01 11.15 4.99 11.15 11.15"/><path fill="#F2F2F2" d="M52.07 10.42c-2.54 0-4.24 2.08-4.24 4.52 0 2.43 1.7 4.51 4.24 4.51s4.22-2.08 4.22-4.51c0-2.44-1.68-4.52-4.22-4.52m0 10.84c-3.51 0-6.2-2.89-6.2-6.32 0-3.44 2.69-6.31 6.2-6.31 3.51 0 6.18 2.87 6.18 6.31 0 3.43-2.67 6.32-6.18 6.32M67.28 10.64h-4.06v3.58h4.06c1.06 0 1.92-.66 1.92-1.77 0-1.12-.84-1.81-1.92-1.81m1.66 4.93s.07.13 2.07 4.22c.07.13.09.26.09.4 0 .36-.18.71-.53.88-.12.07-.27.09-.42.09-.36 0-.69-.2-.86-.55L67 15.9h-3.78v4.3c0 .55-.45.97-.99.97-.53 0-.97-.44-.97-.97V9.81c0-.53.44-.97.97-.97h4.79c2.28 0 4.13 1.1 4.13 3.55 0 1.48-.78 2.7-2.21 3.18M75.8 21.16c-.55 0-.99-.44-.99-.99V9.67c0-.55.44-.99.99-.99s.97.44.97.99v10.51c-.01.55-.42.98-.97.98M90.96 19.01c-1.19 1.53-3.12 2.25-4.99 2.25-3.51 0-6.2-2.87-6.2-6.3 0-3.44 2.69-6.33 6.2-6.33 1.55 0 3.09.51 4.17 1.56.22.2.33.48.33.73 0 .18-.05.35-.18.51a.81.81 0 0 1-.66.33c-.2 0-.4-.05-.56-.18-.71-.55-1.54-1.15-3.09-1.15-2.56 0-4.24 2.12-4.24 4.53s1.68 4.51 4.24 4.51c1.23 0 2.47-.44 3.26-1.32l-.02-2.1h-2.69c-.48 0-.9-.39-.9-.88s.42-.88.9-.88h3.68c.6 0 .99.44.99.99v3.1c-.01.28-.07.43-.24.63M95.65 21.16c-.55 0-.99-.44-.99-.99V9.67c0-.55.44-.99.99-.99s.97.44.97.99v10.51c-.01.55-.42.98-.97.98M109.72 21.16c-.31 0-.53-.11-.71-.35l-6.43-8.67v8.1c0 .51-.42.91-.93.91a.91.91 0 0 1-.92-.91V9.62c0-.48.36-.94.95-.94.27 0 .55.15.69.35 0 0 3.62 5.03 6.44 8.67V9.62c0-.51.4-.94.91-.94s.93.42.93.94v10.64c0 .5-.42.9-.93.9M118.93 11.73l-2.07 4.62H121l-2.07-4.62zm5.2 9.34c-.13.05-.26.09-.39.09a.91.91 0 0 1-.84-.55l-1.15-2.6h-5.63l-1.15 2.6c-.14.35-.51.55-.86.55-.13 0-.24-.02-.36-.07-.33-.14-.53-.49-.53-.84 0-.13.02-.27.07-.4l4.81-10.62c.15-.31.48-.55.84-.55.37 0 .69.22.84.55l4.81 10.62c.05.13.08.25.08.38-.01.35-.2.7-.54.84M135.06 21.02h-6.86c-.55 0-.99-.44-.99-.99V9.67c0-.55.44-.99.99-.99s.99.44.99.99v9.52h5.87c.51 0 .91.39.91.9s-.4.93-.91.93M150.15 9.94h-3.84v10.62c0 .33-.27.6-.6.6-.33 0-.6-.27-.6-.6V9.94h-3.84c-.31 0-.55-.24-.55-.55 0-.31.24-.55.55-.55h8.88c.31 0 .57.24.57.55 0 .32-.26.55-.57.55M159.04 9.92h-4.74v4.62h4.74c1.33 0 2.28-.95 2.28-2.3s-.95-2.32-2.28-2.32m.95 5.49s.07.18 2.38 4.94c.04.09.06.17.06.26 0 .2-.11.42-.31.51-.07.04-.16.05-.24.05-.22 0-.42-.13-.53-.33-2.56-5.24-2.56-5.26-2.56-5.26h-4.48v5.01c0 .33-.29.58-.62.58s-.58-.26-.58-.58V9.43c0-.33.25-.58.58-.58h5.23c2.08 0 3.62 1.28 3.62 3.38-.01 1.59-1 2.88-2.55 3.18M170.53 10.56l-2.65 5.85h5.28l-2.63-5.85zm5.38 10.55a.42.42 0 0 1-.22.05.53.53 0 0 1-.51-.33l-1.53-3.38h-6.23l-1.52 3.37a.57.57 0 0 1-.51.34c-.07 0-.16-.02-.24-.05a.56.56 0 0 1-.33-.51c0-.07 0-.17.04-.24L170 9.03a.62.62 0 0 1 .53-.35c.28 0 .46.24.51.35l5.15 11.33c.04.07.04.17.04.24.01.22-.12.42-.32.51M187.02 9.47l-5.01 11.37a.56.56 0 0 1-.51.33c-.24 0-.44-.11-.53-.33l-5.02-11.37c-.04-.07-.04-.15-.04-.22 0-.3.22-.57.55-.57.22 0 .42.13.51.33l4.51 10.34 4.53-10.34c.09-.2.29-.33.51-.33.35 0 .55.27.55.57 0 .07-.01.14-.05.22M197.29 21.02H190c-.33 0-.6-.27-.6-.6V9.43c0-.33.27-.58.6-.58h7.02c.31 0 .57.24.57.55 0 .31-.26.55-.57.55h-6.43v4.19h3.64c.31 0 .55.24.55.55 0 .31-.24.55-.55.55h-3.64v4.7h6.71c.31 0 .54.24.54.55 0 .29-.24.53-.55.53M208.5 21.02h-7.04c-.33 0-.6-.27-.6-.6V9.28c0-.33.27-.6.6-.6.33 0 .6.27.6.6v10.64h6.43c.31 0 .55.22.55.53 0 .32-.23.57-.54.57"/></svg><svg width="210" height="40" viewBox="0 0 210 40" id="logo-wht" y="80"><path fill="#fff" d="M32.08 15.39C32.08 6.89 25.19 0 16.69 0S1.31 6.89 1.31 15.39c0 7.66 5.6 14 12.93 15.17l2.45 8.98 2.45-8.98c7.33-1.18 12.94-7.51 12.94-15.17m-4.23 0c0 6.16-4.99 11.16-11.15 11.16s-11.15-5-11.15-11.16S10.54 4.24 16.7 4.24c6.15-.01 11.15 4.99 11.15 11.15"/><path fill="#F2F2F2" d="M52.07 10.42c-2.54 0-4.24 2.08-4.24 4.52 0 2.43 1.7 4.51 4.24 4.51s4.22-2.08 4.22-4.51c0-2.44-1.68-4.52-4.22-4.52m0 10.84c-3.51 0-6.2-2.89-6.2-6.32 0-3.44 2.69-6.31 6.2-6.31 3.51 0 6.18 2.87 6.18 6.31 0 3.43-2.67 6.32-6.18 6.32M67.28 10.64h-4.06v3.58h4.06c1.06 0 1.92-.66 1.92-1.77 0-1.12-.84-1.81-1.92-1.81m1.66 4.93s.07.13 2.07 4.22c.07.13.09.26.09.4 0 .36-.18.71-.53.88-.12.07-.27.09-.42.09-.36 0-.69-.2-.86-.55L67 15.9h-3.78v4.3c0 .55-.45.97-.99.97-.53 0-.97-.44-.97-.97V9.81c0-.53.44-.97.97-.97h4.79c2.28 0 4.13 1.1 4.13 3.55 0 1.48-.78 2.7-2.21 3.18M75.8 21.16c-.55 0-.99-.44-.99-.99V9.67c0-.55.44-.99.99-.99s.97.44.97.99v10.51c-.01.55-.42.98-.97.98M90.96 19.01c-1.19 1.53-3.12 2.25-4.99 2.25-3.51 0-6.2-2.87-6.2-6.3 0-3.44 2.69-6.33 6.2-6.33 1.55 0 3.09.51 4.17 1.56.22.2.33.48.33.73 0 .18-.05.35-.18.51a.81.81 0 0 1-.66.33c-.2 0-.4-.05-.56-.18-.71-.55-1.54-1.15-3.09-1.15-2.56 0-4.24 2.12-4.24 4.53s1.68 4.51 4.24 4.51c1.23 0 2.47-.44 3.26-1.32l-.02-2.1h-2.69c-.48 0-.9-.39-.9-.88s.42-.88.9-.88h3.68c.6 0 .99.44.99.99v3.1c-.01.28-.07.43-.24.63M95.65 21.16c-.55 0-.99-.44-.99-.99V9.67c0-.55.44-.99.99-.99s.97.44.97.99v10.51c-.01.55-.42.98-.97.98M109.72 21.16c-.31 0-.53-.11-.71-.35l-6.43-8.67v8.1c0 .51-.42.91-.93.91a.91.91 0 0 1-.92-.91V9.62c0-.48.36-.94.95-.94.27 0 .55.15.69.35 0 0 3.62 5.03 6.44 8.67V9.62c0-.51.4-.94.91-.94s.93.42.93.94v10.64c0 .5-.42.9-.93.9M118.93 11.73l-2.07 4.62H121l-2.07-4.62zm5.2 9.34c-.13.05-.26.09-.39.09a.91.91 0 0 1-.84-.55l-1.15-2.6h-5.63l-1.15 2.6c-.14.35-.51.55-.86.55-.13 0-.24-.02-.36-.07-.33-.14-.53-.49-.53-.84 0-.13.02-.27.07-.4l4.81-10.62c.15-.31.48-.55.84-.55.37 0 .69.22.84.55l4.81 10.62c.05.13.08.25.08.38-.01.35-.2.7-.54.84M135.06 21.02h-6.86c-.55 0-.99-.44-.99-.99V9.67c0-.55.44-.99.99-.99s.99.44.99.99v9.52h5.87c.51 0 .91.39.91.9s-.4.93-.91.93M150.15 9.94h-3.84v10.62c0 .33-.27.6-.6.6-.33 0-.6-.27-.6-.6V9.94h-3.84c-.31 0-.55-.24-.55-.55 0-.31.24-.55.55-.55h8.88c.31 0 .57.24.57.55 0 .32-.26.55-.57.55M159.04 9.92h-4.74v4.62h4.74c1.33 0 2.28-.95 2.28-2.3s-.95-2.32-2.28-2.32m.95 5.49s.07.18 2.38 4.94c.04.09.06.17.06.26 0 .2-.11.42-.31.51-.07.04-.16.05-.24.05-.22 0-.42-.13-.53-.33-2.56-5.24-2.56-5.26-2.56-5.26h-4.48v5.01c0 .33-.29.58-.62.58s-.58-.26-.58-.58V9.43c0-.33.25-.58.58-.58h5.23c2.08 0 3.62 1.28 3.62 3.38-.01 1.59-1 2.88-2.55 3.18M170.53 10.56l-2.65 5.85h5.28l-2.63-5.85zm5.38 10.55a.42.42 0 0 1-.22.05.53.53 0 0 1-.51-.33l-1.53-3.38h-6.23l-1.52 3.37a.57.57 0 0 1-.51.34c-.07 0-.16-.02-.24-.05a.56.56 0 0 1-.33-.51c0-.07 0-.17.04-.24L170 9.03a.62.62 0 0 1 .53-.35c.28 0 .46.24.51.35l5.15 11.33c.04.07.04.17.04.24.01.22-.12.42-.32.51M187.02 9.47l-5.01 11.37a.56.56 0 0 1-.51.33c-.24 0-.44-.11-.53-.33l-5.02-11.37c-.04-.07-.04-.15-.04-.22 0-.3.22-.57.55-.57.22 0 .42.13.51.33l4.51 10.34 4.53-10.34c.09-.2.29-.33.51-.33.35 0 .55.27.55.57 0 .07-.01.14-.05.22M197.29 21.02H190c-.33 0-.6-.27-.6-.6V9.43c0-.33.27-.58.6-.58h7.02c.31 0 .57.24.57.55 0 .31-.26.55-.57.55h-6.43v4.19h3.64c.31 0 .55.24.55.55 0 .31-.24.55-.55.55h-3.64v4.7h6.71c.31 0 .54.24.54.55 0 .29-.24.53-.55.53M208.5 21.02h-7.04c-.33 0-.6-.27-.6-.6V9.28c0-.33.27-.6.6-.6.33 0 .6.27.6.6v10.64h6.43c.31 0 .55.22.55.53 0 .32-.23.57-.54.57"/></svg><svg width="233" height="40" viewBox="0 0 233 40" id="logo-wht-otuk"><title>icons/logo wht</title><g fill="#FFF" fill-rule="evenodd"><path d="M181.98 7.717a.554.554 0 0 0-.507.324l-4.47 10.204L172.55 8.04a.555.555 0 0 0-.507-.324c-.322 0-.54.267-.54.56 0 .07 0 .141.037.213l4.955 11.212c.091.22.292.326.525.326a.55.55 0 0 0 .506-.326l4.941-11.212a.496.496 0 0 0 .05-.213c0-.293-.194-.56-.538-.56zm-18.388 7.626l2.612-5.77 2.597 5.77h-5.209zm3.117-7.283c-.052-.108-.233-.344-.505-.344-.27 0-.468.216-.522.344L160.6 19.236c-.037.072-.037.162-.037.234 0 .22.123.418.324.506a.557.557 0 0 0 .233.052.57.57 0 0 0 .506-.338l1.497-3.321h6.147l1.513 3.333c.09.22.287.326.505.326a.468.468 0 0 0 .218-.052.551.551 0 0 0 .324-.506c0-.072 0-.162-.038-.234L166.709 8.06zm-35.496 10.022h-5.784V8.69a.972.972 0 0 0-.977-.974.97.97 0 0 0-.973.974v10.221a.97.97 0 0 0 .973.976h6.761a.909.909 0 0 0 .902-.922c0-.503-.395-.883-.902-.883zm23.653-4.58h-4.673V8.943h4.673c1.315 0 2.25.952 2.25 2.288 0 1.335-.935 2.271-2.25 2.271zm3.44-2.287c0-2.075-1.511-3.337-3.568-3.337h-5.157a.57.57 0 0 0-.576.577v10.999c0 .323.251.575.576.575.326 0 .612-.252.612-.575v-4.942h4.42s0 .018 2.522 5.19c.11.201.309.327.522.327a.547.547 0 0 0 .237-.053c.2-.09.306-.31.306-.505a.604.604 0 0 0-.056-.252c-2.27-4.69-2.341-4.868-2.341-4.868 1.53-.29 2.503-1.568 2.503-3.136zM146.104 7.88h-8.76a.532.532 0 0 0-.542.54c0 .307.236.54.542.54h3.785v10.475a.6.6 0 0 0 .594.594.599.599 0 0 0 .597-.594V8.96h3.784c.307 0 .56-.234.56-.542a.547.547 0 0 0-.56-.54zm86.331 10.775l-3.894-6.485c.363-.349.689-.666.978-.95.29-.283.618-.6.986-.951.369-.35.735-.705 1.097-1.067a.8.8 0 0 0 .272-.635.844.844 0 0 0-.29-.669c-.157-.158-.364-.237-.617-.237a.859.859 0 0 0-.634.254l-5.74 5.595v-4.87a.975.975 0 0 0-.272-.69.905.905 0 0 0-.687-.289.934.934 0 0 0-.698.29.962.962 0 0 0-.28.689v10.413c0 .278.094.51.28.697.187.187.419.28.698.28a.902.902 0 0 0 .687-.29.967.967 0 0 0 .273-.687v-3.025l.316-.307c.164-.157.36-.35.587-.58.231-.229.49-.486.78-.77.29-.283.598-.582.925-.897l3.693 6.104a.884.884 0 0 0 .78.452c.167 0 .32-.042.452-.127a.828.828 0 0 0 .326-.335.94.94 0 0 0 .109-.443.862.862 0 0 0-.127-.47zm-39.837.148h-6.617V14.17h3.587a.53.53 0 0 0 .541-.54.53.53 0 0 0-.541-.54h-3.587V8.96h6.344c.31 0 .562-.234.562-.542a.547.547 0 0 0-.562-.54h-6.92a.585.585 0 0 0-.596.575v10.839c0 .322.27.595.596.595h7.193a.533.533 0 0 0 .539-.543.531.531 0 0 0-.539-.542zm11.05 0h-6.343V8.31a.598.598 0 0 0-.598-.594.598.598 0 0 0-.593.594v10.982c0 .322.27.595.593.595h6.94c.309 0 .54-.253.54-.561 0-.306-.231-.524-.54-.524zM217.83 7.66a.948.948 0 0 0-.697.281.952.952 0 0 0-.281.698v6.647c0 .916-.262 1.66-.786 2.227-.526.567-1.29.85-2.292.85-1.002 0-1.77-.283-2.3-.85-.532-.568-.797-1.311-.797-2.227V8.639a.951.951 0 0 0-.28-.698.947.947 0 0 0-.698-.281.916.916 0 0 0-.687.281.964.964 0 0 0-.273.698v6.374c0 .773.118 1.473.354 2.101a4.534 4.534 0 0 0 1.013 1.61 4.5 4.5 0 0 0 1.593 1.034c.623.242 1.315.362 2.075.362.76 0 1.45-.12 2.073-.362a4.508 4.508 0 0 0 1.595-1.033c.44-.446.778-.984 1.014-1.611.235-.628.352-1.328.352-2.1V8.638a.951.951 0 0 0-.28-.698.948.948 0 0 0-.698-.281zM49.362 18.334c-2.507 0-4.18-2.056-4.18-4.451 0-2.4 1.673-4.453 4.18-4.453 2.508 0 4.165 2.054 4.165 4.453 0 2.395-1.657 4.45-4.165 4.45zm0-10.673c-3.46 0-6.112 2.834-6.112 6.222 0 3.39 2.653 6.237 6.112 6.237 3.462 0 6.093-2.848 6.093-6.237 0-3.388-2.631-6.222-6.093-6.222zm23.404.054a.97.97 0 0 0-.974.975v10.366c0 .54.43.973.974.973.542 0 .954-.433.954-.973V8.69c0-.542-.412-.975-.954-.975zm14.205 5.534h-3.625c-.468 0-.883.381-.883.868 0 .486.415.864.883.864h2.652l.02 2.073c-.779.866-2.003 1.298-3.212 1.298-2.524 0-4.184-2.074-4.184-4.45 0-2.382 1.66-4.472 4.184-4.472 1.532 0 2.345.594 3.049 1.137.163.126.36.178.556.178.253 0 .488-.11.65-.326a.782.782 0 0 0 .179-.502.99.99 0 0 0-.325-.722c-1.06-1.027-2.577-1.534-4.11-1.534-3.46 0-6.113 2.849-6.113 6.24 0 3.387 2.653 6.218 6.114 6.218 1.838 0 3.748-.701 4.92-2.217a.83.83 0 0 0 .218-.614v-3.062c0-.542-.378-.977-.973-.977zm26.302 2.039l2.038-4.56 2.04 4.56h-4.078zm2.87-7.03a.913.913 0 0 0-.832-.541c-.358 0-.685.236-.83.54l-4.74 10.476a1.01 1.01 0 0 0-.072.395c0 .343.2.687.525.828a.821.821 0 0 0 .358.073c.343 0 .705-.198.847-.541l1.136-2.56h5.554l1.136 2.56a.9.9 0 0 0 .827.541.982.982 0 0 0 .382-.09c.34-.143.522-.486.522-.829a.94.94 0 0 0-.074-.377l-4.74-10.476zm-51.78 4.922H60.36V9.644h4.003c1.065 0 1.893.685 1.893 1.787 0 1.098-.845 1.75-1.893 1.75zm3.82-1.804c0-2.416-1.819-3.497-4.073-3.497h-4.724a.962.962 0 0 0-.955.956v10.241a.964.964 0 1 0 1.929 0v-4.238h3.732l2.254 4.65a.93.93 0 0 0 .847.542c.145 0 .29-.018.414-.09.346-.162.526-.507.526-.864a.77.77 0 0 0-.09-.4c-1.967-4.037-2.039-4.163-2.039-4.163 1.406-.471 2.18-1.677 2.18-3.137zm24.16-3.661a.972.972 0 0 0-.974.975v10.366c0 .54.435.973.974.973.543 0 .954-.433.954-.973V8.69c0-.542-.41-.975-.954-.975zm13.883 0a.91.91 0 0 0-.9.923v7.969c-2.779-3.588-6.348-8.546-6.348-8.546a.874.874 0 0 0-.685-.346.918.918 0 0 0-.937.923v10.49c0 .506.397.901.902.901a.906.906 0 0 0 .918-.901v-7.986l6.347 8.547c.181.234.397.34.703.34.504 0 .92-.395.92-.901V8.638a.927.927 0 0 0-.92-.923zM26.381 15.294c0 6.123-4.964 11.09-11.088 11.09-6.122 0-11.087-4.967-11.087-11.09S9.17 4.208 15.293 4.208c6.124 0 11.088 4.963 11.088 11.086m4.207 0C30.588 6.848 23.74 0 15.294 0 6.847 0 0 6.848 0 15.294 0 22.91 5.572 29.21 12.857 30.378l2.436 8.924 2.436-8.924c7.285-1.169 12.86-7.465 12.86-15.084"/></g></svg><svg data-name="Layer 2" viewBox="0 0 26 26" width="26" height="26" id="map" x="233" y="96"><circle fill="#fff" cx="13" cy="13" r="10"/><path fill="#0059a7" d="M10.83 8.47s-.06.06-.05.09 0 .07.07 0 .06-.07 0-.11l-.02.02zM14 4.89a1 1 0 0 0 .1.11 1.35 1.35 0 0 1 .06-.19v-.06h-.07a.08.08 0 0 0-.09.14zm-.3 0c0 .08.1.09.1 0s0-.19-.1-.2a.3.3 0 0 0-.11 0v.07s.14.03.15.11zM10.6 11c0 .1.08-.05.12-.06s.16 0 .19-.08 0-.1 0-.14a.57.57 0 0 1-.06-.14v-.23l-.2.12v.07-.08s-.09.09-.11.09 0 .14 0 .15a.85.85 0 0 0 0 .17s.13-.09.13-.14a.1.1 0 0 1 0-.07h.09s-.07 0-.05.08 0 .06 0 .11-.15.07-.11.15zm.28-3.29v-.07a.74.74 0 0 0 0-.09 1.08 1.08 0 0 0 0-.11V7.14L10.69 7l-.1.1v.27h-.08l-.09-.09-.09-.11v.17a.79.79 0 0 0 0 .11l-.11-.15v.23l.12.07v-.08h.08l.06.07-.06.06s0 .11.07.13H10.61a.14.14 0 0 1 .06 0h.07l.06.11.2.05A.21.21 0 0 1 11 8h.11l-.11.08c-.07 0-.06.09 0 .16s.05 0 .12 0 .11-.07.12-.12.05-.08.11-.12 0-.09 0-.13-.12 0-.12 0h-.08c-.01 0 0-.07 0-.09S11 7.71 11 7.71h-.05s-.06.04-.07.02zm3.75-3.92v-.06.08zM10.5 8.92a.29.29 0 0 0-.09 0l-.14.12v.06c0 .06.16-.06.2-.12s.06-.06.03-.06zm.27 1.23a.31.31 0 0 0 0-.1h-.07a.28.28 0 0 0-.05.15c.04.07.13-.05.13-.05zm.23.49a.38.38 0 0 1 0-.13v-.1a.72.72 0 0 1 .07-.13s.06-.13.1-.18a.13.13 0 0 0 0-.09v-.17V9.99l-.19.14-.07.14V10.42a.49.49 0 0 0 0 .19l.09.04zm3.44-6.3c.07 0 .05 0 0-.05a.59.59 0 0 0-.11-.07s.05.11.12.12zm0-.3a.33.33 0 0 0 .11-.04l.06-.06H14.46V4s-.06.08 0 0zm-.77.49s0 .08.07 0 .06-.06.07 0 0 .12.05.16.11 0 .15 0 0 0 .07.07.18 0 .22-.07 0-.08 0-.11-.07-.14-.11-.09 0 0-.09 0-.12.06-.16 0 .07-.05.1-.1 0 0-.05-.07.08 0 .12-.07-.05-.1-.14-.1 0 .08 0 .12-.08 0-.12 0-.1 0-.11.12a1 1 0 0 0 0 .18zm.54-.42h-.06c-.06 0 .05 0 .09.01zM14 4h.06c.06 0 .05.05.06 0s0 0 0-.06 0 0-.05 0H14A.62.62 0 0 1 14 4zm.26.19v.05c0 .05.03.02.02-.06zm-.14-.34v.06c0 .06.02-.05.02-.07zm-2.79 5.56l-.11-.1-.16-.06-.06-.11c-.06-.11-.09-.14-.12-.14l-.21.07s.05.05 0 .08 0 0 .08.07a.34.34 0 0 1 .09.1h.12l-.09.09s-.14.12-.09.14a.43.43 0 0 0 .17 0 1.38 1.38 0 0 1-.23.1s-.11-.08-.13 0 0 .12 0 .13.08 0 .14 0h.19a.74.74 0 0 1 .16-.1v.06l.16-.1h-.05.08s.07-.22.06-.23zm8.4 6.74a3.6 3.6 0 0 0-.38-.24.51.51 0 0 0-.28-.08.77.77 0 0 0-.19 0h-.42c-.11 0-.16.12-.16.19a1 1 0 0 1-.07.21.18.18 0 0 0-.14 0c-.08 0-.11-.07-.15-.13s-.16 0-.16 0l.16-.25s.18-.13.19-.19a.69.69 0 0 0-.05-.31c0-.08-.17-.32-.19-.34a.17.17 0 0 0-.09-.07s-.06 0-.11-.09-.09 0-.13-.07a.82.82 0 0 1-.14-.14h-.14a.14.14 0 0 0-.14 0H16.85s0-.07.09-.08a1.75 1.75 0 0 1 .21 0h.13c.02 0 .18.05.21.08l.1.08h.26l-.1-.21-.25-.29a.53.53 0 0 1-.09-.34c0-.09.1-.07.1-.07v-.06a.57.57 0 0 0-.16 0v-.09h-.09a.1.1 0 0 1-.05-.1 1.3 1.3 0 0 0-.1-.18.66.66 0 0 1-.08-.15s-.12 0-.15-.07-.08-.1-.11-.11a1.58 1.58 0 0 1-.25-.07.66.66 0 0 0-.18 0v-.09a.22.22 0 0 0-.06-.06.3.3 0 0 1-.1-.19c0-.08 0-.12-.06-.17a.52.52 0 0 0-.09-.18.51.51 0 0 1-.06-.16.93.93 0 0 0-.06-.14.29.29 0 0 1-.06-.2.23.23 0 0 0 0-.16s-.05-.09 0-.12 0-.11-.07-.23-.06-.13-.13-.14a.2.2 0 0 1-.14-.09l-.19-.28-.08-.12c0-.07-.05-.08-.09-.08a.52.52 0 0 1-.15 0s0-.06-.07-.06a.31.31 0 0 1-.19-.08c-.07-.07-.23-.1-.3 0a.33.33 0 0 1-.22.16c-.13 0-.19 0-.29-.07a1.36 1.36 0 0 0-.31 0 .22.22 0 0 1-.17-.09h.18a.75.75 0 0 0 .19 0 .37.37 0 0 0 .18-.07.47.47 0 0 1 0-.36c0-.07.16-.09.21-.15s.1 0 .18 0a.35.35 0 0 0 .23-.16c0-.05 0-.05-.06-.09s-.08 0-.19-.07 0-.16 0-.17a.34.34 0 0 0-.26.07.71.71 0 0 1-.19.09 1.41 1.41 0 0 1 .25-.2.35.35 0 0 1 .19 0h.15s.11-.16.18-.23.05 0 0-.13 0-.07 0-.14.05-.07.11-.11.12-.19.15-.23 0-.18 0-.25a.26.26 0 0 0 .05-.19 1.3 1.3 0 0 1 0-.19.48.48 0 0 1 .11-.22c.05-.07.1-.08.12-.14a.36.36 0 0 0 0-.17v-.14c0-.06 0-.05-.06-.12s.01-.06-.01-.06h-.1a1.93 1.93 0 0 1-.19 0 .45.45 0 0 0-.17 0 1.4 1.4 0 0 1-.41 0c-.16 0-.15 0-.27.08S13.83 7 13.8 7s-.17 0-.19.08a.29.29 0 0 1-.17.05s-.07.07-.15.12a.22.22 0 0 1-.16 0h-.08s-.08.07-.12.11l-.11.07h-.1.1a.29.29 0 0 0 0-.07l.18-.23.05-.08H13a.18.18 0 0 1-.11.05v-.13c0-.04.12 0 .12 0l.2-.31a.19.19 0 0 0-.06 0 .21.21 0 0 1-.08 0H12.86a.23.23 0 0 0-.12 0s.05-.05.09 0a.12.12 0 0 0 .1 0l.08-.09-.01-.03h.07l.06-.06s.09 0 .1-.05a.52.52 0 0 1 .15-.17.7.7 0 0 0 .21-.19.69.69 0 0 1 .26-.21.53.53 0 0 0 .15-.23v-.1-.11c0-.05.05-.06.06-.09a.17.17 0 0 0 0-.07v-.07h-.22l-.07-.05v.1H13.48l-.11.08h-.3-.25l-.09.13v-.21h-.13v.1c0 .06-.15.13-.15.13a.89.89 0 0 1 .08-.17l-.06-.08h-.07a.85.85 0 0 1 0-.1h-.17v.16l-.23.17v.14s-.05 0-.06.1a.38.38 0 0 0 0 .13s.06.06.05.06h-.09a.4.4 0 0 0-.14 0 .06.06 0 0 1-.08 0 .35.35 0 0 0 0 .1.47.47 0 0 1 .06.1.35.35 0 0 1 0 .09v.07s-.08-.06-.1-.06l.2.21a.4.4 0 0 1 .06.09v.06h-.12l.06.07h-.08c-.08 0-.06-.06-.09-.05s0 0-.07.07-.06 0-.08-.09-.07 0-.09 0a.19.19 0 0 0 0 .15v.08a.42.42 0 0 1-.05-.16c0-.06-.1 0-.11.06a.28.28 0 0 0 0 .17s.09.06.07.1-.06 0-.08 0a.11.11 0 0 0 0 .12v.09c0 .03.08 0 .08.08s-.06 0-.12 0h-.13a.29.29 0 0 0 0 .21v.15c0 .07.07.06.12 0s.07-.11.09-.06.06.05 0 .09-.07 0-.08 0 0 .07 0 .08a.25.25 0 0 0 .13 0s.05 0 .07.07 0 0-.09 0-.06.07-.08.12 0 .06 0 .09.07 0 .07.06-.06 0-.12 0-.07 0-.09.1 0 0 .09.06a.06.06 0 0 1 0 .1h-.12c-.05 0 0 0-.07.12s0 .1 0 .1.08 0 .06.07-.1 0-.1.07.08 0 .06.06a.26.26 0 0 1-.08.06c-.05 0 0-.05-.11 0a.65.65 0 0 1-.18 0c-.08 0-.1.09-.05.11s.06 0 .11 0L11 9a.22.22 0 0 0 .16 0h.1-.05s-.08.07-.1.09-.06 0-.1 0 0 .08 0 .11.12.1.15.1h.08a.12.12 0 0 0 .1.07s.07-.05.12-.11l.1-.11.09-.15.09-.09a.64.64 0 0 0 .06-.1h.08a.74.74 0 0 0-.07.1.27.27 0 0 0 0 .07h.12-.15s-.05 0-.05.06-.06.09-.06.09v.1h.14a.34.34 0 0 1-.08.08.19.19 0 0 1-.13 0 .64.64 0 0 0 .07.09h.18-.24l-.09.07v.06c0 .06 0 0-.07 0s0 .14 0 .15.07 0 .07 0V9.97l-.07.09v.13l-.07.09a.21.21 0 0 0 0 .07h.09l-.07.11a.15.15 0 0 0 0 .11.34.34 0 0 0 0 .07h.07a1.12 1.12 0 0 0-.12.15 1 1 0 0 0-.07.2v.28c0 .05-.09.09-.09.12v.17h.19a.17.17 0 0 0 .09-.12c0-.06-.05-.12-.05-.12l.08-.16a.24.24 0 0 0 0-.15.44.44 0 0 1 0-.16s.07-.1.12-.15.05-.09 0-.12a.79.79 0 0 1-.08-.17.4.4 0 0 1 0-.16h.08c.08 0 0-.12.09-.16a1 1 0 0 1 .17-.15s.06-.09.08-.11l.13-.09a1.15 1.15 0 0 0-.12.13 1 1 0 0 1-.1.13l-.13.13a.28.28 0 0 0-.07.18v.18l.1.11a.21.21 0 0 1 0-.1.51.51 0 0 0 0-.1v.06h.07v-.12l.05.1a.65.65 0 0 0 0 .12s0-.05.06-.08a.29.29 0 0 0 0-.13c0-.06.05-.07.06-.07s0 .06.08.05 0-.07 0-.06a1 1 0 0 1 .13.1.42.42 0 0 0 .13.09 1.1 1.1 0 0 1-.2 0c-.05 0-.1-.06-.14 0a.36.36 0 0 0 0 .27.09.09 0 0 1 0 .11v.1a1.42 1.42 0 0 0 .17.14.38.38 0 0 1 .1.15.2.2 0 0 1 0 .19s-.13 0-.14.11-.07.08-.07.12a1.23 1.23 0 0 1-.05.19s-.15.15-.15.17a.51.51 0 0 1 0 .14v.26c0 .02-.05 0 0-.09s0-.06 0-.09-.09 0-.09 0v.09a.47.47 0 0 1 0 .11c0 .06.11.15.15.18a.45.45 0 0 1 .08.17c0 .06 0 .09.06.12s.06 0 .06-.07v-.08c0-.08-.05-.06-.06-.11a.15.15 0 0 1 .05-.12s.08-.06.1 0l.1.09a.36.36 0 0 0 .1.06l.09.09a.17.17 0 0 0 .07.07l.1.05a.16.16 0 0 0 0-.07v-.08-.1a.27.27 0 0 1-.08-.1v-.09a.14.14 0 0 0 0 .06l.07.05h.08v.09c0 .03.06.07.09.07s0-.09 0-.1v.08c0 .01 0 0 .07 0a1 1 0 0 0 .16-.1v-.06h.08l.05-.06h.12v-.11a.17.17 0 0 1 0-.09.49.49 0 0 1 .19 0 .69.69 0 0 0 .22 0h.12-.26c-.04 0 0 .07 0 .08s-.07 0-.09 0a.48.48 0 0 0-.06.14.26.26 0 0 0 0 .11s-.07.06-.1.14a.65.65 0 0 0-.06.22.58.58 0 0 1 0 .17l.24.3a.57.57 0 0 0 0 .15l.07.12H14v-.09a.76.76 0 0 1 0 .1v.2a.22.22 0 0 0 0 .09.1.1 0 0 1 0-.06h.09a.39.39 0 0 0 .07-.1.8.8 0 0 1 .08-.14v.06s.06.07.07.06l.11-.13a.38.38 0 0 0 0 .19c0 .06 0 .09-.08.13s0 .08 0 .12v.07l-.13.07v.28c0 .05.13.08.12.12a1.88 1.88 0 0 1-.19.26l.08.17.09.14a.28.28 0 0 0 .13.14h.14v.07a.24.24 0 0 1-.12.05.13.13 0 0 1-.12 0 1.8 1.8 0 0 0-.1-.22.87.87 0 0 0-.16.09 1.42 1.42 0 0 0 .09.14v.1s-.08-.07-.12-.1-.13-.09-.16-.08l-.15.05-.11.07a.21.21 0 0 1-.17 0l-.14-.05v.08a.66.66 0 0 0-.18.08.16.16 0 0 1-.13 0 .2.2 0 0 0-.1.09.74.74 0 0 1-.08.13.38.38 0 0 0-.08.14l-.18.18a.09.09 0 0 1-.08 0l-.18.19a.79.79 0 0 0 0 .12h.2l.09.06v-.12l.07-.09h.1a.36.36 0 0 1 .14 0H13s-.05.06 0 .08a.43.43 0 0 1 0 .12l.14.19-.06.09v.09l.06.13h.13l-.12.07a2.7 2.7 0 0 1-.05.27.63.63 0 0 1-.21.28.16.16 0 0 1-.08 0l-.07.05a.29.29 0 0 1-.09.08.39.39 0 0 1-.15 0h-.07a.08.08 0 0 0-.07 0l-.08.06c-.08.06 0 .08-.07.07s-.1 0-.12 0h-.12v.09l-.15.08c-.06 0-.09 0-.09.07a.12.12 0 0 0 .09 0 .18.18 0 0 1 .16 0v.11c0 .11-.15.09-.12.11l.06.07a.09.09 0 0 1 .06 0H12a.38.38 0 0 0 .15-.06.34.34 0 0 1-.12.1h-.13l.06.07a.18.18 0 0 0 .12.08c.05 0 .1-.09.12-.1s0 0 .1 0 0 0 .07-.07 0-.09.08-.1h.2c.06 0 .07-.06.11-.05s0 .07 0 .11a.09.09 0 0 0 .08.07h.28s-.11.09-.15.08-.12 0-.12.05a.11.11 0 0 0 .07.11h.11a.15.15 0 0 1 .12 0 .18.18 0 0 0 .16-.05s.1-.06.11 0 0 0 .05.14.07.13.11.14a.75.75 0 0 1 .18.1.55.55 0 0 0 .27 0 .27.27 0 0 0 .22-.12l.13-.18c0-.06.13 0 .19 0a.34.34 0 0 0 .17-.09l.07-.07.24-.23a2.36 2.36 0 0 1-.21.28c-.06.06 0 .06 0 .12a.24.24 0 0 1-.12.1.51.51 0 0 0-.12.09 1.38 1.38 0 0 1-.11.18c-.05.07 0 .09-.05.15s0 .08 0 .13-.11 0-.21 0h-.19c-.08 0-.15-.08-.22-.09a.79.79 0 0 0-.19 0h-.39a.39.39 0 0 0-.14 0H13s-.06 0 0 .07a.1.1 0 0 1 0 .08s-.06.07-.09.12 0 .06-.09.06h-.21v.07a.24.24 0 0 1 0 .1.24.24 0 0 0 0 .12.75.75 0 0 1 0 .14l-.12.13-.13.12v.15c0 .02-.13 0-.15 0s0 .08 0 .08-.09 0-.1.07 0 .12 0 .16a.13.13 0 0 1-.1 0v.13l-.15.12-.1.06s-.07.1-.1.1-.06-.06-.1 0l-.2.09v.18l.07.06h.13c.05 0 0-.08 0-.12s.09 0 .1 0a.68.68 0 0 0 .11.06s.05 0 .1.07 0 .07 0 .12a.1.1 0 0 0 .06.07l.06-.08h.06c.06 0 0 0 0-.06v-.09-.1a.2.2 0 0 0 0-.11.47.47 0 0 0 0 .07h.14c.07 0 0-.06.07-.06a.1.1 0 0 0 .09-.07.3.3 0 0 1 0-.12h.15a.14.14 0 0 1 .1 0h.11a.29.29 0 0 1 .16 0s.09.07.12.07a.37.37 0 0 0-.09-.06h.07l.07-.08v.14l.07.07s.06.07.09.08 0 0 .09 0 .08 0 .11.08.07.09.1.1 0 0 .06 0h.09c.09 0 0 0 0-.05v-.11c0-.06.12-.09.14-.11a.36.36 0 0 0 0-.09v-.06c0-.06.07-.05.07-.05a.3.3 0 0 1 0-.13.32.32 0 0 1 .06-.12.13.13 0 0 0 0-.09s.09.07.12 0 .08-.08.13-.1a.24.24 0 0 1 .13 0h.2a.18.18 0 0 1 .19 0 1.71 1.71 0 0 1 .36.26s0-.07.13-.09.09 0 .15 0h.27s.11 0 .11-.08a.11.11 0 0 0-.08-.09s0-.08.06-.05a.21.21 0 0 0 .15 0H16a.7.7 0 0 1 .19 0l.07-.09c.07-.09.1-.05.15-.07s.06 0 0-.09a.67.67 0 0 0-.12-.15l.22.12c.07 0 .12.1.14.09s0-.08 0-.1 0 0 .06 0 0 .08.06.1 0 0 0-.08 0 0 .07 0 0 .08 0 .09v-.08a.48.48 0 0 0 .08.11.16.16 0 0 0 .09 0v-.09l.41-.1a2.14 2.14 0 0 1 .29 0 .7.7 0 0 1 .3.06.87.87 0 0 0 .27.06.83.83 0 0 1 .11-.19c.06-.07.17-.05.22-.08s.12 0 .16-.1.13-.07.19-.06a.57.57 0 0 0 .14 0 .67.67 0 0 1 0-.21s.18-.1.19-.13.16 0 .2-.08 0-.14 0-.16v-.18c0-.02.07-.12.07-.12a.08.08 0 0 0-.1 0 .42.42 0 0 1-.16 0 .55.55 0 0 0-.21.06h-.2c-.08 0-.13 0-.18-.08s-.17 0-.18 0 .18-.1.18-.1h-.19a.24.24 0 0 0-.15 0 .58.58 0 0 1 .08-.09s.16-.07.23 0 .08 0 .12 0a.4.4 0 0 0 .2-.45 1.37 1.37 0 0 0 0-.21h-.11a.13.13 0 0 1-.14 0h.12a.09.09 0 0 0 .06-.07H19c.07 0 0-.07 0-.07a.23.23 0 0 1 .09 0h.12c.04 0 .15-.09.15-.13s0-.06-.07-.06 0-.08 0-.11-.11 0-.11 0h.09c.04 0 0-.07 0-.07l.11.07a2.49 2.49 0 0 0 .13-.22c0-.06.13-.07.13-.07v-.22a1.7 1.7 0 0 1 .06-.29 1.17 1.17 0 0 0 0-.24v-.13a1.07 1.07 0 0 0 .03-.43zm-.84 2.72s.09.06.13 0 .09 0 0-.07a.51.51 0 0 0-.16-.05s-.01.09.03.12zm-7.11-8h-.08s-.09.1-.08.17a.85.85 0 0 1 0 .16v.17c0 .02.21 0 .23 0a.21.21 0 0 0 0-.12v-.09l-.05-.06v-.12c0-.12.01-.15-.02-.15zm4.77 9.44c-.08 0-.08-.06-.12 0s-.06.09-.13.1a.23.23 0 0 0-.13.07h.15c.08 0 .15.11.21.11s.08 0 .11-.07a.17.17 0 0 0 .05-.13c.01-.1-.06-.07-.14-.12zm-4-5c-.09.09 0 .19-.1.19h-.1c.02 0 .08.12.11.11s0 0 .08.05a.39.39 0 0 0 .17.15s.06 0 .12-.11a.51.51 0 0 1 .15-.12c.05 0 .07-.12 0-.11s-.07.1-.12 0-.08-.2-.13-.22-.07-.1-.16-.02zm-1.19-1.71v-.11a.06.06 0 0 0-.07 0h-.07a.08.08 0 0 1 0-.08v-.23c0-.11-.06-.12 0-.12a.23.23 0 0 1 .15.11v.25h.08a.52.52 0 0 0 0-.25.81.81 0 0 1-.07-.27h-.13a.33.33 0 0 0-.26.12v-.16c0-.06.17-.09.25-.15s0 0 0-.07-.13-.13-.17-.17l-.07-.25a.71.71 0 0 1-.07-.15l-.06-.06a1.57 1.57 0 0 1 0-.21.19.19 0 0 0-.15-.07.15.15 0 0 1-.11 0h-.17a.35.35 0 0 0-.22 0 .34.34 0 0 1-.24.09c-.15 0-.13-.05-.13.08a.28.28 0 0 1 0 .12c0 .07-.23 0-.23 0l-.07-.08.11-.13.31-.14-.23-.13s-.07-.05-.07-.07-.1-.06-.1-.06l-.15-.07.08.08.07.11H9.27v.18a.57.57 0 0 1 0 .11v.11H9.2c-.02 0 0 .07 0 .07l-.14.14.07-.1v-.1a.47.47 0 0 1 .1-.12s0-.08-.06-.1 0-.14 0-.14 0-.08-.07 0a.2.2 0 0 1-.12.06s-.08.06-.08.09a.27.27 0 0 1 0 .09l-.07-.12h-.07l-.1.1h-.2a1.17 1.17 0 0 0 0 .13s-.12 0-.14.08a.25.25 0 0 0 0 .13.35.35 0 0 0 0 .12l.08.11-.18.05c-.11 0 .06.1 0 .1h-.25c-.07 0-.1.13-.1.17s0 0 .07 0a.21.21 0 0 0 .14.07h.2l-.08.1.1-.07a.23.23 0 0 1 .13 0h.13a1.45 1.45 0 0 0-.08.17.19.19 0 0 1-.19.1c-.11 0-.09 0-.12.06s-.2.16-.2.16a.49.49 0 0 1 .13 0v.08h-.09l.05.09h-.05s0-.07-.09-.07h-.31a.85.85 0 0 0-.12 0c-.06 0-.09 0-.11.07l-.07.12a.07.07 0 0 1-.05 0v-.13c0-.06-.1-.1-.12-.09h-.61l.07.09h-.28c-.02 0-.1.11-.08.14s0 0 0 .05a.18.18 0 0 1 0 .09.4.4 0 0 0 0 .11 1 1 0 0 1 0-.14l.06-.07h.05a.32.32 0 0 0 0 .07v.08l-.07.05v.06l.12-.08V14.04l.07.07h-.08c-.02 0 0 0 0 0v-.07h-.33.18c-.01 0 0 .08 0 .09H6.54a.08.08 0 0 1 .06.13v.06h-.34v.17l.06.11h-.08l-.05.07h-.12v.07c0 .07.06.06 0 .06s0 .09 0 .09H6h.11a.1.1 0 0 0 .07 0s.08 0 .08-.05.1 0 .1 0v.08l-.13.1h.17c.07 0 0-.11.08-.14s0 0 .07.05.07.06.06.07-.07.05-.07.11 0 0 .07 0 0 .08 0 .08h.64v.09a.11.11 0 0 1 0 .11h-.11c-.11 0 0 .06-.07.07s-.07.08-.07.08a.23.23 0 0 0-.07.12.64.64 0 0 1-.08.15l-.08.19h.1a.18.18 0 0 1 0 .09.76.76 0 0 0-.11.22h-.11c-.06 0-.1.07-.18.16a.71.71 0 0 1-.23.15.65.65 0 0 0 .2 0c.07 0 .08-.06.11-.07s.08 0 .11 0H7.09a.76.76 0 0 0 .12-.06.15.15 0 0 0 .09-.14c0-.06 0 0 0 0a.26.26 0 0 0 0 .13h.16a1.35 1.35 0 0 1-.24.1l-.22.07a.54.54 0 0 1-.17 0H6.54c-.02 0 0 .16-.08.16s-.07 0-.09.07-.14 0-.18 0 0 0 0 .06a.18.18 0 0 1 .08.13c0 .07-.05.09-.05.11s.12 0 .13 0h-.17a.24.24 0 0 1-.11 0 .35.35 0 0 1 0-.11l-.07.14a.08.08 0 0 1-.1 0v-.08l-.11.06-.09.08h-.07-.05a.26.26 0 0 0 0 .14h.64c.22 0 .12.05.12.05a1.2 1.2 0 0 0-.21.07c-.06 0-.09.09-.11.09h-.16l-.15.09v.08h-.16v.16a.14.14 0 0 1 0 .06l.16-.01h.13c.06 0 0 0 0 0l-.08.06.08.06h.13a1.11 1.11 0 0 1 .18 0 .15.15 0 0 0 .09 0 .43.43 0 0 1 .15-.12h.09a.39.39 0 0 1-.14.06c-.07 0-.12.11-.13.12a.3.3 0 0 1-.14 0c-.07 0 0 .1 0 .1s-.1.06-.11.09-.2.09-.2.09h.23l.13-.06H6.36a.54.54 0 0 0 .23-.1s.07 0 .07.06a.19.19 0 0 1-.12.09s-.12.06-.19.09a.79.79 0 0 0-.16.1l.35-.12-.12.11a.45.45 0 0 1-.18.08s-.05.09 0 .1a.29.29 0 0 0 .13 0h.18l.11-.06h.08a.29.29 0 0 1 0 .07h.16l.2-.08a.43.43 0 0 1 .13 0h.08l.11-.08h.2l-.08-.12h.13l.13.09v-.13a.3.3 0 0 0 .14 0 .79.79 0 0 1 .16-.08 1.51 1.51 0 0 0-.1-.23l-.1-.12H8l.07.06a.31.31 0 0 0 .11 0l-.05.1h.17a.73.73 0 0 0 .1-.08h.11l.13-.07h.1c.07 0 0-.05.09-.07s.1 0 .11-.09.07-.08 0-.08h-.1a.62.62 0 0 0 .16-.17H9.44a.12.12 0 0 0 .15 0v-.2a.81.81 0 0 1 .09.11.18.18 0 0 1 0 .14 1.38 1.38 0 0 1 .21-.18s.14.09.18.1a.67.67 0 0 1 .23 0c.12 0 .15-.07.07-.14s-.15-.16-.14-.23.3-.26.34-.31 0-.18 0-.25 0-.17.07-.24a1.07 1.07 0 0 1 .12-.19v-.21a.86.86 0 0 0 0-.19v-.28c0-.15-.21-.22-.21-.22a.28.28 0 0 0 .12-.19c0-.11.06-.1 0-.23s0-.09-.13-.22 0-.21 0-.27v-.15c0-.04-.15-.1-.16-.16s.07-.09.17 0 .2.06.17-.06-.06 0-.08-.06l-.08-.1a.21.21 0 0 1 .14.06.12.12 0 0 0 .15 0s.15-.06.17-.16 0-.2 0-.22.29-.02.36-.1zm-.75-5.29s-.06 0-.07.08 0 .14.07.14a.09.09 0 0 0 .1-.1v-.09a.15.15 0 0 0-.08-.11zm1.9 5.17a1.06 1.06 0 0 1-.13.24c-.06.07-.08.07-.08.19a.2.2 0 0 1-.09.18 1.54 1.54 0 0 0 .23-.06c.08 0 .09-.08.16-.14a.21.21 0 0 0 .09-.16v-.15-.19s-.12-.08-.16.01zM12 10.76a.06.06 0 0 0 0-.06.31.31 0 0 0-.06-.17l-.1-.1a.37.37 0 0 0 0 .14zM9.58 7.21a.11.11 0 0 1 .07 0h.12s.05 0 0 0h-.12.1s.07 0 0 0-.06-.07-.05-.07h.07v-.06A.15.15 0 0 1 9.83 7a.06.06 0 0 0-.07 0s0 .07-.06.05L9.64 7s0 .06-.07 0a.07.07 0 0 0-.08 0v.14a.17.17 0 0 0 .09.07zm.46 2s-.18 0-.14.05.09.12.15.05.11-.07.15-.13-.05 0-.05 0-.06.06-.15.06zm-.63-.73v-.09c0-.02 0 0 .08-.07s0-.06 0-.08v-.07a.44.44 0 0 0-.09.12v.11a.14.14 0 0 0 .01.12zM11 7.7v-.06a.28.28 0 0 1 0-.11V7.4v.06a.34.34 0 0 0 0 .07v.17zm-1-1h-.12l.15.2a1.88 1.88 0 0 0 .13-.15h.1a1.12 1.12 0 0 1 0-.12h.11v-.09l-.08-.11.13.09a.24.24 0 0 0 .09 0 .48.48 0 0 0 .09-.09l-.05-.06h.14a.6.6 0 0 1 0-.1V6.2c0 .01-.08 0-.06 0l.12-.08a.44.44 0 0 1 0-.09s.07.05.12 0 .03-.03.01-.03h-.13c-.04 0 0 0 0-.06s.1-.06.12-.09a.33.33 0 0 0 0-.07v-.09a.61.61 0 0 0 0-.08v-.15a2.46 2.46 0 0 0-.3.24s-.06.1-.12.1a.21.21 0 0 0-.15.11s.06.06.07.14l-.08-.09a1.21 1.21 0 0 1 0 .15h-.07s0-.14-.05-.13S10 5.92 10 6v.1a.16.16 0 0 0 0 .11.12.12 0 0 0 0 .09h.1s-.11 0-.13.08a.05.05 0 0 0 0 .07h.13-.06v.07a.57.57 0 0 0-.04.22zm-.28 1.11v-.12h-.08l-.06-.05V8l.09.06h.05L9.66 8v-.14h.04zm0-.39h-.14v.1h.05a.09.09 0 0 0 .05 0h.06a.34.34 0 0 0-.03-.1zm0 .23h-.08l-.04-.11z"/></svg><svg width="30" height="24" viewBox="0 0 30 24" id="minus-blue" x="233"><title>icons/minus turq</title><path d="M10 12.281c0-.406.135-.721.406-.945.271-.224.584-.336.938-.336h7.14c.365 0 .68.112.946.336.265.224.398.539.398.945 0 .407-.133.722-.398.946a1.42 1.42 0 0 1-.946.335h-7.14a1.42 1.42 0 0 1-.946-.335c-.265-.224-.398-.54-.398-.946z" fill="#0059A7" fill-rule="evenodd"/></svg><svg width="30" height="24" viewBox="0 0 30 24" id="minus-turq" x="233" y="24"><title>icons/minus turq</title><path d="M10 12.281c0-.406.135-.721.406-.945.271-.224.584-.336.938-.336h7.14c.365 0 .68.112.946.336.265.224.398.539.398.945 0 .407-.133.722-.398.946a1.42 1.42 0 0 1-.946.335h-7.14a1.42 1.42 0 0 1-.946-.335c-.265-.224-.398-.54-.398-.946z" fill="#0CC" fill-rule="evenodd"/></svg><svg width="30" height="24" viewBox="0 0 30 24" id="minus-wht" x="96" y="192"><title>icons/minus wht</title><path d="M10 12.281c0-.406.135-.721.406-.945.271-.224.584-.336.938-.336h7.14c.365 0 .68.112.946.336.265.224.398.539.398.945 0 .407-.133.722-.398.946a1.42 1.42 0 0 1-.946.335h-7.14a1.42 1.42 0 0 1-.946-.335c-.265-.224-.398-.54-.398-.946z" fill="#FFF" fill-rule="evenodd"/></svg><svg width="31" height="40" viewBox="0 0 31 40" id="ot-icon-blue" y="120"><title>icons/OT icon blu</title><path d="M26.381 15.295c0 6.123-4.963 11.09-11.087 11.09-6.123 0-11.088-4.967-11.088-11.09S9.17 4.208 15.294 4.208c6.124 0 11.087 4.964 11.087 11.087m4.207 0C30.588 6.848 23.74 0 15.295 0 6.847 0 0 6.848 0 15.295 0 22.91 5.572 29.21 12.858 30.379l2.436 8.923 2.435-8.923c7.286-1.17 12.86-7.466 12.86-15.084" fill="#0059A7" fill-rule="evenodd" fill-opacity=".9"/></svg><svg width="31" height="40" viewBox="0 0 31 40" id="ot-icon-turq" x="31" y="120"><path d="M26.381 15.295c0 6.123-4.963 11.09-11.087 11.09-6.123 0-11.088-4.967-11.088-11.09S9.17 4.208 15.294 4.208c6.124 0 11.087 4.964 11.087 11.087m4.207 0C30.588 6.848 23.74 0 15.295 0 6.847 0 0 6.848 0 15.295 0 22.91 5.572 29.21 12.858 30.379l2.436 8.923 2.435-8.923c7.286-1.17 12.86-7.466 12.86-15.084" fill="#0CC" fill-rule="evenodd"/></svg><svg width="31" height="40" viewBox="0 0 31 40" id="ot-icon-wht" x="62" y="120"><title>icons/OT icon blu</title><path d="M26.381 15.295c0 6.123-4.963 11.09-11.087 11.09-6.123 0-11.088-4.967-11.088-11.09S9.17 4.208 15.294 4.208c6.124 0 11.087 4.964 11.087 11.087m4.207 0C30.588 6.848 23.74 0 15.295 0 6.847 0 0 6.848 0 15.295 0 22.91 5.572 29.21 12.858 30.379l2.436 8.923 2.435-8.923c7.286-1.17 12.86-7.466 12.86-15.084" fill="#fff" fill-rule="evenodd" fill-opacity=".9"/></svg><svg data-name="Layer 2" viewBox="0 0 32 32" width="32" height="32" id="pin-blue" x="32" y="192"><title>pin-blue</title><circle fill="#0059a7" cx="16" cy="16" r="16"/><path fill="#fff" d="M16 7.83a8.16 8.16 0 0 0-3.29 15.65 7.11 7.11 0 0 1 .14-1.87l1.05-4.45a3.14 3.14 0 0 1-.26-1.29c0-1.21.7-2.11 1.58-2.11A1.1 1.1 0 0 1 16.33 15a17.55 17.55 0 0 1-.72 2.9 1.26 1.26 0 0 0 1.29 1.57c1.55 0 2.6-2 2.6-4.34 0-1.79-1.21-3.13-3.41-3.13a3.87 3.87 0 0 0-4 3.91 2.35 2.35 0 0 0 .54 1.6.4.4 0 0 1 .12.46l-.17.65a.28.28 0 0 1-.41.2 3.14 3.14 0 0 1-1.68-3.12c0-2.32 2-5.1 5.85-5.1a4.89 4.89 0 0 1 5.19 4.68c0 3.2-1.79 5.6-4.42 5.6a2.35 2.35 0 0 1-2-1s-.48 1.88-.58 2.24a6.81 6.81 0 0 1-.82 1.75A8.17 8.17 0 1 0 16 7.83"/></svg><svg data-name="Layer 2" viewBox="0 0 32 32" width="32" height="32" id="pin-turq" x="64" y="192"><title>pin-turq</title><circle fill="#0cc" cx="16" cy="16" r="16"/><path fill="#fff" d="M16 7.83a8.16 8.16 0 0 0-3.29 15.65 7.11 7.11 0 0 1 .14-1.87l1.05-4.45a3.14 3.14 0 0 1-.26-1.29c0-1.21.7-2.11 1.58-2.11A1.1 1.1 0 0 1 16.33 15a17.55 17.55 0 0 1-.72 2.9 1.26 1.26 0 0 0 1.29 1.57c1.55 0 2.6-2 2.6-4.34 0-1.79-1.21-3.13-3.41-3.13a3.87 3.87 0 0 0-4 3.91 2.35 2.35 0 0 0 .54 1.6.4.4 0 0 1 .12.46l-.17.65a.28.28 0 0 1-.41.2 3.14 3.14 0 0 1-1.68-3.12c0-2.32 2-5.1 5.85-5.1a4.89 4.89 0 0 1 5.19 4.68c0 3.2-1.79 5.6-4.42 5.6a2.35 2.35 0 0 1-2-1s-.48 1.88-.58 2.24a6.81 6.81 0 0 1-.82 1.75A8.17 8.17 0 1 0 16 7.83"/></svg><svg width="30" height="24" viewBox="0 0 30 24" id="plus-blue" x="233" y="48"><title>icons/plus turq</title><path d="M7.797 11.656c0-.344.112-.63.336-.86.224-.228.518-.343.883-.343h4.64v-4.64c0-.365.123-.68.367-.946.245-.265.57-.398.977-.398.406 0 .732.133.977.398.244.266.367.58.367.946v4.64h4.64c.344 0 .633.115.868.344.234.229.351.515.351.86 0 .343-.117.632-.351.866a1.178 1.178 0 0 1-.868.352h-4.64v4.64c0 .365-.123.68-.367.946-.245.266-.57.398-.977.398-.406 0-.732-.132-.977-.398a1.348 1.348 0 0 1-.367-.945v-4.641h-4.64c-.365 0-.66-.117-.883-.352a1.207 1.207 0 0 1-.336-.867z" fill="#0059A7" fill-rule="evenodd"/></svg><svg width="30" height="24" viewBox="0 0 30 24" id="plus-turq" x="233" y="72"><title>icons/plus turq</title><path d="M7.797 11.656c0-.344.112-.63.336-.86.224-.228.518-.343.883-.343h4.64v-4.64c0-.365.123-.68.367-.946.245-.265.57-.398.977-.398.406 0 .732.133.977.398.244.266.367.58.367.946v4.64h4.64c.344 0 .633.115.868.344.234.229.351.515.351.86 0 .343-.117.632-.351.866a1.178 1.178 0 0 1-.868.352h-4.64v4.64c0 .365-.123.68-.367.946-.245.266-.57.398-.977.398-.406 0-.732-.132-.977-.398a1.348 1.348 0 0 1-.367-.945v-4.641h-4.64c-.365 0-.66-.117-.883-.352a1.207 1.207 0 0 1-.336-.867z" fill="#0CC" fill-rule="evenodd"/></svg><svg width="30" height="24" viewBox="0 0 30 24" id="plus-wht" x="126" y="192"><title>icons/plus wht</title><path d="M7.797 11.656c0-.344.112-.63.336-.86.224-.228.518-.343.883-.343h4.64v-4.64c0-.365.123-.68.367-.946.245-.265.57-.398.977-.398.406 0 .732.133.977.398.244.266.367.58.367.946v4.64h4.64c.344 0 .633.115.868.344.234.229.351.515.351.86 0 .343-.117.632-.351.866a1.178 1.178 0 0 1-.868.352h-4.64v4.64c0 .365-.123.68-.367.946-.245.266-.57.398-.977.398-.406 0-.732-.132-.977-.398a1.348 1.348 0 0 1-.367-.945v-4.641h-4.64c-.365 0-.66-.117-.883-.352a1.207 1.207 0 0 1-.336-.867z" fill="#FFF" fill-rule="evenodd"/></svg><svg width="14" height="11" viewBox="0 0 14 11" id="tick-blue" x="249" y="137"><title>icons/tick blue</title><path d="M13.92 2.34c0 .237-.084.44-.25.606L5.99 10.625a.827.827 0 0 1-.607.25.827.827 0 0 1-.607-.25L.33 6.179a.827.827 0 0 1-.25-.608c0-.238.084-.44.25-.607L1.545 3.75a.827.827 0 0 1 .607-.25c.238 0 .44.083.607.25l2.625 2.634L11.24.518a.827.827 0 0 1 .607-.25c.238 0 .44.083.607.25l1.215 1.214c.166.167.25.37.25.607z" fill="#0059A7" fill-rule="evenodd"/></svg><svg width="14" height="11" viewBox="0 0 14 11" id="tick-turq" x="233" y="173"><title>icons/tick turq</title><path d="M13.92 2.34c0 .237-.084.44-.25.606L5.99 10.625a.827.827 0 0 1-.607.25.827.827 0 0 1-.607-.25L.33 6.179a.827.827 0 0 1-.25-.608c0-.238.084-.44.25-.607L1.545 3.75a.827.827 0 0 1 .607-.25c.238 0 .44.083.607.25l2.625 2.634L11.24.518a.827.827 0 0 1 .607-.25c.238 0 .44.083.607.25l1.215 1.214c.166.167.25.37.25.607z" fill="#0CC" fill-rule="evenodd"/></svg><svg data-name="Layer 2" viewBox="0 0 32 32" width="32" height="32" id="twit-blue" x="64" y="160"><title>twit-blue</title><circle fill="#0059a7" cx="16" cy="16" r="16"/><path fill="#fff" d="M23.95 11.09a6.51 6.51 0 0 1-1.87.51 3.25 3.25 0 0 0 1.43-1.8 6.5 6.5 0 0 1-2.07.79 3.26 3.26 0 0 0-5.55 3 9.26 9.26 0 0 1-6.72-3.4 3.25 3.25 0 0 0 1 4.34 3.27 3.27 0 0 1-1.48-.41 3.25 3.25 0 0 0 2.62 3.19 3.2 3.2 0 0 1-.86.11 3.24 3.24 0 0 1-.61-.06 3.26 3.26 0 0 0 3 2.26 6.55 6.55 0 0 1-4 1.39 6.7 6.7 0 0 1-.78 0 9.28 9.28 0 0 0 14.27-7.79v-.42a6.62 6.62 0 0 0 1.63-1.68"/></svg><svg data-name="Layer 2" viewBox="0 0 32 32" width="32" height="32" id="twit-turq" x="192" y="160"><title>twit-turq</title><circle fill="#0cc" cx="16" cy="16" r="16"/><path fill="#fff" d="M23.95 11.09a6.51 6.51 0 0 1-1.87.51 3.25 3.25 0 0 0 1.43-1.8 6.5 6.5 0 0 1-2.07.79 3.26 3.26 0 0 0-5.55 3 9.26 9.26 0 0 1-6.72-3.4 3.25 3.25 0 0 0 1 4.34 3.27 3.27 0 0 1-1.48-.41 3.25 3.25 0 0 0 2.62 3.19 3.2 3.2 0 0 1-.86.11 3.24 3.24 0 0 1-.61-.06 3.26 3.26 0 0 0 3 2.26 6.55 6.55 0 0 1-4 1.39 6.7 6.7 0 0 1-.78 0 9.28 9.28 0 0 0 14.27-7.79v-.42a6.62 6.62 0 0 0 1.63-1.68"/></svg><svg data-name="Layer 2" viewBox="0 0 32 32" width="32" height="32" id="youtube-blue" y="160"><title>youtube-blue</title><circle fill="#0059a7" cx="15.44" cy="16" r="16"/><path fill="#fff" d="M21.34 9.68H9.54a3 3 0 0 0-3.1 3.1v6.44a3 3 0 0 0 3.1 3.1h11.8a3 3 0 0 0 3.1-3.1v-6.44a3 3 0 0 0-3.1-3.1zM13 19.47v-6.92L18.93 16z"/></svg><svg data-name="Layer 2" viewBox="0 0 32 32" width="32" height="32" id="youtube-turq" x="160" y="160"><title>youtube-turq</title><circle fill="#0cc" cx="16" cy="16" r="16"/><path fill="#fff" d="M21.9 9.68H10.1a3 3 0 0 0-3.1 3.1v6.44a3 3 0 0 0 3.1 3.1h11.8a3 3 0 0 0 3.1-3.1v-6.44a3 3 0 0 0-3.1-3.1zm-8.3 9.79v-6.92L19.49 16z"/></svg></svg>