<?xml version="1.0" encoding="utf-8"?>
<!-- Generator: Adobe Illustrator 16.0.0, SVG Export Plug-In . SVG Version: 6.00 Build 0)  -->
<!DOCTYPE svg PUBLIC "-//W3C//DTD SVG 1.1//EN" "http://www.w3.org/Graphics/SVG/1.1/DTD/svg11.dtd">
<svg version="1.1" id="Layer_1" xmlns="http://www.w3.org/2000/svg" xmlns:xlink="http://www.w3.org/1999/xlink" x="0px" y="0px"
	 width="210px" height="40px" viewBox="0 0 210 40" enable-background="new 0 0 210 40" xml:space="preserve">
<path fill="#00CCCC" d="M32.08,15.39C32.08,6.89,25.19,0,16.69,0C8.19,0,1.31,6.89,1.31,15.39c0,7.66,5.6,14,12.93,15.17l2.45,8.98
	l2.45-8.98C26.47,29.38,32.08,23.05,32.08,15.39 M27.85,15.39c0,6.16-4.99,11.16-11.15,11.16c-6.16,0-11.15-5-11.15-11.16
	c0-6.16,4.99-11.15,11.15-11.15C22.85,4.23,27.85,9.23,27.85,15.39"/>
<path fill="#F2F2F2" d="M52.07,10.42c-2.54,0-4.24,2.08-4.24,4.52c0,2.43,1.7,4.51,4.24,4.51s4.22-2.08,4.22-4.51
	C56.29,12.5,54.61,10.42,52.07,10.42 M52.07,21.26c-3.51,0-6.2-2.89-6.2-6.32c0-3.44,2.69-6.31,6.2-6.31c3.51,0,6.18,2.87,6.18,6.31
	C58.25,18.37,55.58,21.26,52.07,21.26"/>
<path fill="#F2F2F2" d="M67.28,10.64h-4.06v3.58h4.06c1.06,0,1.92-0.66,1.92-1.77C69.2,11.33,68.36,10.64,67.28,10.64 M68.94,15.57
	c0,0,0.07,0.13,2.07,4.22c0.07,0.13,0.09,0.26,0.09,0.4c0,0.36-0.18,0.71-0.53,0.88c-0.12,0.07-0.27,0.09-0.42,0.09
	c-0.36,0-0.69-0.2-0.86-0.55L67,15.9h-3.78v4.3c0,0.55-0.45,0.97-0.99,0.97c-0.53,0-0.97-0.44-0.97-0.97V9.81
	c0-0.53,0.44-0.97,0.97-0.97h4.79c2.28,0,4.13,1.1,4.13,3.55C71.15,13.87,70.37,15.09,68.94,15.57"/>
<path fill="#F2F2F2" d="M75.8,21.16c-0.55,0-0.99-0.44-0.99-0.99V9.67c0-0.55,0.44-0.99,0.99-0.99c0.55,0,0.97,0.44,0.97,0.99v10.51
	C76.76,20.73,76.35,21.16,75.8,21.16"/>
<path fill="#F2F2F2" d="M90.96,19.01c-1.19,1.53-3.12,2.25-4.99,2.25c-3.51,0-6.2-2.87-6.2-6.3c0-3.44,2.69-6.33,6.2-6.33
	c1.55,0,3.09,0.51,4.17,1.56c0.22,0.2,0.33,0.48,0.33,0.73c0,0.18-0.05,0.35-0.18,0.51c-0.17,0.22-0.4,0.33-0.66,0.33
	c-0.2,0-0.4-0.05-0.56-0.18c-0.71-0.55-1.54-1.15-3.09-1.15c-2.56,0-4.24,2.12-4.24,4.53c0,2.41,1.68,4.51,4.24,4.51
	c1.23,0,2.47-0.44,3.26-1.32l-0.02-2.1h-2.69c-0.48,0-0.9-0.39-0.9-0.88c0-0.49,0.42-0.88,0.9-0.88h3.68c0.6,0,0.99,0.44,0.99,0.99
	v3.1C91.19,18.66,91.13,18.81,90.96,19.01"/>
<path fill="#F2F2F2" d="M95.65,21.16c-0.55,0-0.99-0.44-0.99-0.99V9.67c0-0.55,0.44-0.99,0.99-0.99c0.55,0,0.97,0.44,0.97,0.99
	v10.51C96.61,20.73,96.2,21.16,95.65,21.16"/>
<path fill="#F2F2F2" d="M109.72,21.16c-0.31,0-0.53-0.11-0.71-0.35l-6.43-8.67v8.1c0,0.51-0.42,0.91-0.93,0.91
	c-0.51,0-0.92-0.4-0.92-0.91V9.62c0-0.48,0.36-0.94,0.95-0.94c0.27,0,0.55,0.15,0.69,0.35c0,0,3.62,5.03,6.44,8.67V9.62
	c0-0.51,0.4-0.94,0.91-0.94c0.51,0,0.93,0.42,0.93,0.94v10.64C110.65,20.76,110.23,21.16,109.72,21.16"/>
<path fill="#F2F2F2" d="M118.93,11.73l-2.07,4.62H121L118.93,11.73z M124.13,21.07c-0.13,0.05-0.26,0.09-0.39,0.09
	c-0.35,0-0.69-0.2-0.84-0.55l-1.15-2.6h-5.63l-1.15,2.6c-0.14,0.35-0.51,0.55-0.86,0.55c-0.13,0-0.24-0.02-0.36-0.07
	c-0.33-0.14-0.53-0.49-0.53-0.84c0-0.13,0.02-0.27,0.07-0.4l4.81-10.62c0.15-0.31,0.48-0.55,0.84-0.55c0.37,0,0.69,0.22,0.84,0.55
	l4.81,10.62c0.05,0.13,0.08,0.25,0.08,0.38C124.66,20.58,124.47,20.93,124.13,21.07"/>
<path fill="#F2F2F2" d="M135.06,21.02h-6.86c-0.55,0-0.99-0.44-0.99-0.99V9.67c0-0.55,0.44-0.99,0.99-0.99s0.99,0.44,0.99,0.99v9.52
	h5.87c0.51,0,0.91,0.39,0.91,0.9C135.97,20.6,135.57,21.02,135.06,21.02"/>
<path fill="#F2F2F2" d="M150.15,9.94h-3.84v10.62c0,0.33-0.27,0.6-0.6,0.6c-0.33,0-0.6-0.27-0.6-0.6V9.94h-3.84
	c-0.31,0-0.55-0.24-0.55-0.55c0-0.31,0.24-0.55,0.55-0.55h8.88c0.31,0,0.57,0.24,0.57,0.55C150.72,9.71,150.46,9.94,150.15,9.94"/>
<path fill="#F2F2F2" d="M159.04,9.92h-4.74v4.62h4.74c1.33,0,2.28-0.95,2.28-2.3S160.37,9.92,159.04,9.92 M159.99,15.41
	c0,0,0.07,0.18,2.38,4.94c0.04,0.09,0.06,0.17,0.06,0.26c0,0.2-0.11,0.42-0.31,0.51c-0.07,0.04-0.16,0.05-0.24,0.05
	c-0.22,0-0.42-0.13-0.53-0.33c-2.56-5.24-2.56-5.26-2.56-5.26h-4.48v5.01c0,0.33-0.29,0.58-0.62,0.58s-0.58-0.26-0.58-0.58V9.43
	c0-0.33,0.25-0.58,0.58-0.58h5.23c2.08,0,3.62,1.28,3.62,3.38C162.53,13.82,161.54,15.11,159.99,15.41"/>
<path fill="#F2F2F2" d="M170.53,10.56l-2.65,5.85h5.28L170.53,10.56z M175.91,21.11c-0.07,0.04-0.14,0.05-0.22,0.05
	c-0.22,0-0.42-0.11-0.51-0.33l-1.53-3.38h-6.23l-1.52,3.37c-0.09,0.2-0.29,0.34-0.51,0.34c-0.07,0-0.16-0.02-0.24-0.05
	c-0.2-0.09-0.33-0.29-0.33-0.51c0-0.07,0-0.17,0.04-0.24L170,9.03c0.05-0.13,0.26-0.35,0.53-0.35c0.28,0,0.46,0.24,0.51,0.35
	l5.15,11.33c0.04,0.07,0.04,0.17,0.04,0.24C176.24,20.82,176.11,21.02,175.91,21.11"/>
<path fill="#F2F2F2" d="M187.02,9.47l-5.01,11.37c-0.09,0.2-0.29,0.33-0.51,0.33c-0.24,0-0.44-0.11-0.53-0.33l-5.02-11.37
	c-0.04-0.07-0.04-0.15-0.04-0.22c0-0.3,0.22-0.57,0.55-0.57c0.22,0,0.42,0.13,0.51,0.33l4.51,10.34l4.53-10.34
	c0.09-0.2,0.29-0.33,0.51-0.33c0.35,0,0.55,0.27,0.55,0.57C187.07,9.32,187.06,9.39,187.02,9.47"/>
<path fill="#F2F2F2" d="M197.29,21.02H190c-0.33,0-0.6-0.27-0.6-0.6V9.43c0-0.33,0.27-0.58,0.6-0.58h7.02
	c0.31,0,0.57,0.24,0.57,0.55c0,0.31-0.26,0.55-0.57,0.55h-6.43v4.19h3.64c0.31,0,0.55,0.24,0.55,0.55c0,0.31-0.24,0.55-0.55,0.55
	h-3.64v4.7h6.71c0.31,0,0.54,0.24,0.54,0.55C197.84,20.78,197.6,21.02,197.29,21.02"/>
<path fill="#F2F2F2" d="M208.5,21.02h-7.04c-0.33,0-0.6-0.27-0.6-0.6V9.28c0-0.33,0.27-0.6,0.6-0.6c0.33,0,0.6,0.27,0.6,0.6v10.64
	h6.43c0.31,0,0.55,0.22,0.55,0.53C209.04,20.77,208.81,21.02,208.5,21.02"/>
</svg>
