<?xml version="1.0" encoding="utf-8"?>
<!-- Generator: Adobe Illustrator 16.0.0, SVG Export Plug-In . SVG Version: 6.00 Build 0)  -->
<!DOCTYPE svg PUBLIC "-//W3C//DTD SVG 1.1//EN" "http://www.w3.org/Graphics/SVG/1.1/DTD/svg11.dtd">
<svg version="1.1" id="Layer_1" xmlns="http://www.w3.org/2000/svg" xmlns:xlink="http://www.w3.org/1999/xlink" x="0px" y="0px"
	 width="80px" height="600px" viewBox="0 0 80 600" enable-background="new 0 0 80 600" xml:space="preserve">
<g>
	<path fill="#4C4C4C" d="M63.085,156.324l1.41-1.409c0.389-0.392,0.389-1.021,0-1.41c-0.392-0.39-1.021-0.39-1.41,0l-1.41,1.41
		c-0.389,0.39-0.389,1.021,0,1.409C62.062,156.712,62.695,156.713,63.085,156.324z"/>
	<path fill="#4C4C4C" d="M56.035,153.988c0.55,0,0.997-0.446,0.997-0.997v-1.994c0-0.55-0.446-0.997-0.997-0.997
		s-0.998,0.447-0.998,0.997v1.994C55.038,153.542,55.484,153.988,56.035,153.988z"/>
	<path fill="#4C4C4C" d="M48.984,156.324c0.39,0.389,1.021,0.389,1.41,0c0.39-0.391,0.39-1.021,0-1.409l-1.41-1.41
		c-0.395-0.39-1.021-0.39-1.409,0c-0.39,0.39-0.39,1.021,0,1.41L48.984,156.324z"/>
	<path fill="#4C4C4C" d="M48.059,161.964c0-0.552-0.443-0.997-0.996-0.997h-1.994c-0.551,0-0.998,0.445-0.998,0.997
		c0,0.55,0.447,0.997,0.998,0.997h1.994C47.613,162.961,48.059,162.514,48.059,161.964z"/>
	<path fill="#4C4C4C" d="M48.984,167.604l-1.409,1.412c-0.39,0.387-0.39,1.021,0,1.407c0.389,0.39,1.021,0.39,1.409,0l1.41-1.407
		c0.39-0.392,0.39-1.021,0-1.412C50.006,167.214,49.375,167.214,48.984,167.604z"/>
	<path fill="#4C4C4C" d="M72.628,167.757c0.522-0.876,0.847-1.888,0.847-2.981c0-3.221-2.61-5.832-5.832-5.832
		c-2.677,0-4.906,1.813-5.595,4.271c-0.795-0.831-1.911-1.354-3.151-1.354c-2.416,0-4.375,1.957-4.375,4.371
		c0,0.523,0.108,1.021,0.276,1.488c-0.091-0.011-0.182-0.029-0.276-0.029c-1.604,0-2.916,2.035-2.916,3.646
		c0,1.608,1.312,3.644,2.916,3.644h17.496c1.607,0,2.914-2.032,2.914-3.644C74.932,169.936,73.941,168.038,72.628,167.757z"/>
	<path fill="#4C4C4C" d="M53.35,167.305c0.191-0.093,0.385-0.164,0.578-0.213c-0.055-0.289-0.08-0.574-0.08-0.859
		c0-2.782,2.264-5.049,5.049-5.049c1.035,0,2.021,0.312,2.854,0.892c0.076-0.166,0.16-0.325,0.249-0.483
		c-0.191-3.128-2.785-5.607-5.963-5.607c-3.305,0-5.98,2.68-5.98,5.981C50.053,164.3,51.396,166.318,53.35,167.305z"/>
</g>
<g>
	<path fill="#4C4C4C" d="M59.96,100.21c-0.114-0.134-0.283-0.21-0.459-0.21c-0.177,0-0.345,0.076-0.46,0.21
		c-0.643,0.749-0.994,1.703-0.994,2.688v5.354l-10.171,8.014v2.426l10.172-3.883v3.643c0,0.339,0.084,0.672,0.242,0.972
		l-3.633,2.429v1.94l4.844-1.943l4.841,1.94v-1.94l-3.631-2.429c0.158-0.3,0.242-0.633,0.242-0.972v-3.641l10.172,3.883v-2.428
		l-10.172-8.013v-5.354C60.954,101.913,60.602,100.959,59.96,100.21"/>
</g>
<g>
	<path fill="#4C4C4C" d="M60.419,59.928v-5.586h-1.838v5.586v1.85h1.838h3.677v-1.85H60.419z"/>
	<path fill="#4C4C4C" d="M59.5,52.17c4.757,0,8.626,3.895,8.626,8.682s-3.869,8.682-8.626,8.682c-4.756,0-8.625-3.895-8.625-8.682
		S54.744,52.17,59.5,52.17 M59.5,50c-5.954,0-10.782,4.859-10.782,10.852c0,5.994,4.828,10.852,10.782,10.852
		c5.956,0,10.784-4.857,10.784-10.852C70.284,54.859,65.456,50,59.5,50L59.5,50z"/>
</g>
<g>
	<path id="logomark" fill="#00CCCC" d="M70.996,12.061C70.996,5.399,65.625,0,58.998,0S47,5.399,47,12.061
		c0,6.005,4.372,10.972,10.087,11.894l1.911,7.035l1.911-7.035C66.624,23.032,70.996,18.066,70.996,12.061 M67.693,12.061
		c0,4.828-3.896,8.743-8.696,8.743c-4.804,0-8.698-3.915-8.698-8.743c0-4.829,3.895-8.742,8.698-8.742
		C63.802,3.318,67.693,7.231,67.693,12.061"/>
</g>
<path fill="#4C4C4C" d="M15.574,21.411c5.911-0.038,10.673-4.865,10.634-10.777C26.168,4.722,21.345-0.038,15.432,0
	c-1.573,0.011-3.059,0.367-4.397,0.985c0.094,0.01,0.161,0.017,0.161,0.017s1.925,0.171,2.841-0.202
	c0.913-0.372,1.651,0.63,1.287,0.635c-0.368,0-0.818,1.104-0.449,1.104c0.365-0.004,0.458,0.544,1.003-0.101
	c0.547-0.646,0.458-0.368,1.47,0.267c1.012,0.634-0.639,0.643-0.639,0.643S16.35,4.084,15.89,4.089
	c-0.457,0.001-1.55,1.2-1.818,2.027c-0.269,0.827-0.359,0.827-0.733,0.188c-0.37-0.639-0.919-0.178-1.551,0.651
	c-0.636,0.829,1.201,1.641,1.201,1.641l0.922,0.816c0,0,0.733-0.185,1.098-0.372c0.362-0.185,0.276,0.365,1.564,0.908
	c1.285,0.542,0.188,0.64,1.38,0.997c1.192,0.358,1.475,1.275,1.475,1.275l-0.363,0.732l-0.359,1.104c0,0-0.547,0.187-0.816,1.105
	c-0.271,0.915-0.909,1.103-1.365,1.566c-0.456,0.458,0.101,1.464,0.38,2.011c0.28,0.553-0.548-0.087-0.916-0.175
	c-0.369-0.091-0.559-1.188-0.747-1.734c-0.184-0.548,0.082-1.833,0.077-2.476c-0.002-0.64-0.373-0.821-0.833-1.37
	c-0.46-0.547-0.463-0.636-0.743-1.643c-0.284-1.007-0.104-1.283,0.17-1.467c0.273-0.184-0.734-0.544-1.195-0.726
	c-0.457-0.18-0.919-0.545-1.562-0.995c-0.646-0.455-0.833-1.185-1.112-1.549C9.769,6.237,9.665,4.588,9.661,4.037
	c-0.003-0.546,0.632-1.194,0.355-1.652c-0.125-0.2-0.5-0.237-0.932-0.229c-2.621,1.969-4.312,5.098-4.29,8.625
	c0.013,2.04,0.607,3.936,1.61,5.554C6.404,16.334,9.012,21.411,15.574,21.411z"/>
<g>
	<path fill="#4C4C4C" d="M14.704,52.144c0,1.184-2.731,2.144-6.102,2.144c-3.368,0-6.101-0.959-6.101-2.144S5.234,50,8.602,50
		C11.972,50,14.704,50.959,14.704,52.144"/>
	<path fill="#4C4C4C" d="M14.704,53.983"/>
	<path fill="#4C4C4C" d="M14.704,56.225"/>
	<path fill="#4C4C4C" d="M14.704,53.66c0,1.184-2.731,2.144-6.102,2.144c-3.368,0-6.101-0.959-6.101-2.144v2.242
		c0,1.184,2.732,2.144,6.101,2.144c3.37,0,6.102-0.96,6.102-2.144V53.66z"/>
	<path fill="#4C4C4C" d="M14.704,57.626c0,1.184-2.731,2.144-6.102,2.144c-3.368,0-6.101-0.96-6.101-2.144v2.242
		c0,1.184,2.732,2.144,6.101,2.144c3.37,0,6.102-0.96,6.102-2.144V57.626z"/>
	<path fill="#4C4C4C" d="M28.5,60.133c0,1.184-2.732,2.145-6.103,2.145c-3.368,0-6.1-0.961-6.1-2.145c0-1.184,2.731-2.144,6.1-2.144
		C25.768,57.989,28.5,58.948,28.5,60.133"/>
	<path fill="#4C4C4C" d="M28.5,61.649c0,1.184-2.732,2.144-6.103,2.144c-3.368,0-6.1-0.96-6.1-2.144v2.241
		c0,1.185,2.731,2.144,6.1,2.144c3.37,0,6.103-0.959,6.103-2.144V61.649z"/>
	<path fill="#4C4C4C" d="M28.5,65.615c0,1.185-2.732,2.144-6.103,2.144c-3.368,0-6.1-0.959-6.1-2.144v2.241
		c0,1.185,2.731,2.144,6.1,2.144c3.37,0,6.103-0.959,6.103-2.144V65.615z"/>
	<path fill="#4C4C4C" d="M14.704,61.534c0,1.185-2.731,2.144-6.102,2.144c-3.368,0-6.101-0.959-6.101-2.144v2.242
		c0,1.184,2.732,2.144,6.101,2.144c3.37,0,6.102-0.96,6.102-2.144V61.534z"/>
	<path fill="#4C4C4C" d="M14.704,65.558c0,1.185-2.731,2.144-6.102,2.144c-3.368,0-6.101-0.959-6.101-2.144v2.241
		c0,1.185,2.732,2.145,6.101,2.145c3.37,0,6.102-0.96,6.102-2.145V65.558z"/>
</g>
<path fill="#4C4C4C" d="M5.18,107.493c0-1.323,1.072-2.397,2.397-2.397c1.322,0,2.394,1.074,2.394,2.397
	c0,1.323-1.072,2.394-2.394,2.394C6.252,109.887,5.18,108.815,5.18,107.493z"/>
<path fill="#4C4C4C" d="M25.094,109.887H11.063v-3.08c0-0.943,0.71-1.712,1.586-1.712h10.854c0.877,0,1.59,0.769,1.59,1.712
	L25.094,109.887L25.094,109.887z"/>
<path fill="#4C4C4C" d="M29.002,105.22v9.926c0,0.568-0.459,1.027-1.027,1.027c-0.284,0-0.541-0.117-0.727-0.303
	c-0.184-0.184-0.3-0.44-0.3-0.724v-1.712H3.885v1.798c0,0.518-0.423,0.941-0.941,0.941c-0.262,0-0.496-0.105-0.668-0.275
	C2.106,115.725,2,115.491,2,115.232V100.94c0-0.52,0.423-0.94,0.944-0.94c0.259,0,0.493,0.106,0.663,0.275
	c0.172,0.17,0.278,0.404,0.278,0.666v10.781h23.062v-6.502c0-0.568,0.459-1.027,1.027-1.027c0.284,0,0.541,0.114,0.727,0.301
	C28.888,104.68,29.002,104.937,29.002,105.22z"/>
<path fill="#4C4C4C" d="M22.79,150c0,7.344-16.524,3.672-16.524,18.361c0,5.507,1.836,7.344,1.836,7.344h1.836
	c0,0-2.754-1.836-2.754-7.344c0-3.673,8.262-7.345,8.262-7.345S8.12,164.99,8.12,168.76C19.81,170.593,26.281,156.982,22.79,150z"/>
<g id="Your_Icon_3_">
	<path fill="#4C4C4C" d="M22.74,208.003c0-4.354-3.348-8.003-7.734-8.003c-4.386,0-7.746,3.651-7.746,8.007
		c0,1.437,0.2,2.521,0.881,3.759H8.128l6.623,12.77c0.249,0.341,0.51-0.02,0.51-0.02c-0.224,0.335,6.623-12.75,6.623-12.75h-0.006
		C22.552,210.527,22.74,209.441,22.74,208.003z M11.439,207.758c0-2.054,1.598-3.718,3.566-3.718c1.968,0,3.567,1.664,3.567,3.718
		c0,2.054-1.599,3.718-3.567,3.718C13.037,211.476,11.439,209.812,11.439,207.758z"/>
</g>
<g>
	<path fill="#4C4C4C" d="M55,203c0,0-3.939-0.058-6.578,1.651C45.784,206.364,45,210,45,210s2.566-2.72,4.9-3.6
		c2.554-0.963,5.1-0.4,5.1-0.4v3l6-4l-6-5V203z"/>
</g>
<g id="Layer_x0020_1" transform="matrix(0.78827976,0,0,0.78827976,-0.07268745,-0.17175938)">
	<path id="path3007" fill="#4C4C4C" d="M76.122,327.022l-1.634-1.435l-3.242,3.692c-0.69,0.786-1.898,0.865-2.682,0.175l0,0
		c-0.788-0.691-0.865-1.899-0.176-2.684l4.497-5.121c0.689-0.786,1.898-0.863,2.682-0.175l0,0l8.661,7.608l3.241-3.691
		c0.689-0.787,1.898-0.865,2.686-0.175l0,0c0.783,0.69,0.862,1.898,0.171,2.683l-4.495,5.121c-0.691,0.786-1.898,0.865-2.683,0.174
		l0,0l-0.01-0.011l-2.651-2.326l-3.221,4.33l1.878,1.396l0,0c0.84,0.839,1.152,2.066,0.446,3.019l-4.611,6.206
		c-0.711,0.952-2.066,1.153-3.019,0.444l0,0c-0.955-0.707-1.153-2.066-0.445-3.018l3.323-4.474l-1.348-1.002l-7.983,10.738
		c-0.709,0.953-2.064,1.153-3.018,0.445l0,0c-0.954-0.708-1.152-2.067-0.446-3.019L76.122,327.022L76.122,327.022z M85.677,318.193
		c1.858,1.383,2.247,4.011,0.865,5.87c-1.384,1.859-4.011,2.247-5.871,0.863c-1.861-1.382-2.246-4.01-0.865-5.87
		C81.19,317.197,83.819,316.81,85.677,318.193z"/>
</g>
<g>
	<path fill="#FFFFFF" d="M26.998,262.061C26.998,255.399,21.627,250,15,250s-11.998,5.399-11.998,12.061
		c0,6.005,4.372,10.972,10.087,11.894L15,280.99l1.911-7.035C22.626,273.032,26.998,268.066,26.998,262.061 M23.695,262.061
		c0,4.828-3.896,8.743-8.696,8.743c-4.804,0-8.698-3.915-8.698-8.743c0-4.829,3.895-8.742,8.698-8.742
		C19.804,253.318,23.695,257.231,23.695,262.061"/>
</g>
<g>
	<path fill="#4C4C4C" d="M25.832,304.348c-0.323-1.625-1.359-2.271-2.921-2.92c-1.526-0.641-5.197-1.4-7.911-1.426
		c-2.719,0.023-6.39,0.785-7.927,1.426c-1.55,0.646-2.587,1.295-2.905,2.921L3,313.322v12.381h2.012v1.932
		c-0.008,2.374,3.455,2.374,3.456,0v-1.932h6.394h0.016h6.653v1.932c-0.004,2.374,3.459,2.374,3.456,0v-1.932H27v-12.381
		L25.832,304.348z M10.059,302.271h4.82h5.063c0.966-0.005,0.966,1.453,0,1.461h-5.079h-4.804
		C9.087,303.727,9.087,302.269,10.059,302.271z M6.732,321.826c-0.912-0.005-1.656-0.748-1.655-1.672
		c-0.001-0.912,0.743-1.655,1.655-1.655c0.922,0,1.667,0.743,1.672,1.655C8.398,321.078,7.654,321.821,6.732,321.826z
		 M14.878,314.264H6.067c-0.86,0.01-1.042-0.611-0.957-1.231l0.909-6.524c0.125-0.785,0.393-1.307,1.428-1.312h7.417h7.691
		c1.029,0.007,1.298,0.526,1.428,1.312l0.909,6.524c0.078,0.621-0.103,1.241-0.958,1.231H14.878z M23.251,321.826
		c-0.912-0.005-1.655-0.748-1.655-1.672c0-0.912,0.743-1.655,1.655-1.655c0.923,0,1.667,0.743,1.671,1.655
		C24.919,321.078,24.174,321.821,23.251,321.826z"/>
	<path fill="#4C4C4C" d="M14.878,300c0.04,0,0.081,0.002,0.122,0.002S15.082,300,15.122,300H14.878z"/>
</g>
<path fill="#4C4C4C" d="M66.727,325.176c1.76-0.292,3.515-2.129,3.51-4.373v-16.374c0.006-2.309-1.939-4.431-4.575-4.429H60.02
	h-5.662c-2.648-0.002-4.596,2.12-4.594,4.429v16.374c-0.002,2.244,1.752,4.082,3.51,4.373L48,333.098h3.05l3.769-5.551H60h5.182
	l3.785,5.551H72L66.727,325.176z M57.021,301.691c0.002-0.41,0.352-0.748,0.754-0.754h2.224h2.226
	c0.402,0.006,0.754,0.344,0.754,0.754v1.283c0,0.409-0.332,0.758-0.754,0.756H60h-2.225c-0.422,0.002-0.752-0.347-0.752-0.756
	L57.021,301.691L57.021,301.691z M54.247,322.787c-1.104-0.008-2.005-0.908-2.002-2.021c-0.003-1.106,0.897-2.008,2.002-2.003
	c1.116-0.005,2.017,0.896,2.021,2.003C56.266,321.879,55.363,322.779,54.247,322.787z M54.505,312.147
	c-1.267-0.009-2.3-0.874-2.298-2.3v-2.938c0.01-1.229,0.802-2.295,2.298-2.298H60h5.494c1.498,0.003,2.29,1.069,2.298,2.298v2.938
	c0.004,1.426-1.028,2.291-2.298,2.3H60H54.505z M63.693,320.767c-0.004-1.106,0.896-2.009,2.002-2.003
	c1.117-0.006,2.018,0.896,2.021,2.003c-0.006,1.112-0.904,2.015-2.021,2.021C64.59,322.779,63.689,321.879,63.693,320.767z"/>
<path fill="#4C4C4C" d="M26.719,358.792h-4.335c-1.291-2.788-4.115-4.727-7.384-4.727c-3.268,0-6.092,1.938-7.383,4.727H3.281
	C4.756,353.711,9.443,350,15,350S25.244,353.711,26.719,358.792z"/>
<path fill="#4C4C4C" d="M22.384,365.61h4.335c-1.475,5.081-6.162,8.793-11.719,8.793s-10.244-3.712-11.719-8.792h4.335
	c1.291,2.787,4.115,4.726,7.383,4.726C18.269,370.337,21.093,368.398,22.384,365.61z"/>
<polygon fill="#4C4C4C" points="26.89,359.449 22.652,359.449 7.347,359.449 3.11,359.449 0,359.449 0,364.954 3.11,364.954 
	7.347,364.954 22.652,364.954 26.89,364.954 30,364.954 30,359.449 "/>
<g>
	<path fill="#FFFFFF" stroke="#FFFFFF" stroke-miterlimit="10" d="M55,350h-5v4.999l1.5-1.499L54,356l2-2l-2.5-2.501L55,350z"/>
	<path fill="#FFFFFF" stroke="#FFFFFF" stroke-miterlimit="10" d="M59,364h5v-5l-1.5,1.499L60,358l-2,1.999l2.5,2.501L59,364z"/>
	<path fill="#FFFFFF" stroke="#FFFFFF" stroke-miterlimit="10" d="M64,354.999V350h-5l1.5,1.499L58,354l2,2l2.5-2.5L64,354.999z"/>
	<path fill="#FFFFFF" stroke="#FFFFFF" stroke-miterlimit="10" d="M50,359v5h5l-1.5-1.5l2.5-2.501L54,358l-2.5,2.499L50,359z"/>
</g>
<g>
	<path fill="#FFFFFF" d="M0,409.998l10-5L0,400V409.998z"/>
</g>
<g>
	<path fill="#FFFFFF" d="M11.313,450l-4.95,4.95L1.414,450L0,451.415l4.949,4.949L0,461.314l1.414,1.414l4.949-4.95l4.95,4.95
		l1.414-1.414l-4.95-4.95l4.95-4.949L11.313,450z"/>
</g>
</svg>
